<?xml version="1.0" encoding="UTF-8" standalone="no"?>
<!-- Created with Inkscape (http://www.inkscape.org/) -->

<svg
   xmlns:dc="http://purl.org/dc/elements/1.1/"
   xmlns:cc="http://creativecommons.org/ns#"
   xmlns:rdf="http://www.w3.org/1999/02/22-rdf-syntax-ns#"
   xmlns:svg="http://www.w3.org/2000/svg"
   xmlns="http://www.w3.org/2000/svg"
   xmlns:sodipodi="http://sodipodi.sourceforge.net/DTD/sodipodi-0.dtd"
   xmlns:inkscape="http://www.inkscape.org/namespaces/inkscape"
   width="210mm"
   height="297mm"
   viewBox="0 0 210 297"
   version="1.1"
   id="svg8"
   inkscape:version="0.92.4 (5da689c313, 2019-01-14)"
   sodipodi:docname="HP.svg">
  <defs
     id="defs2" />
  <sodipodi:namedview
     id="base"
     pagecolor="#ffffff"
     bordercolor="#666666"
     borderopacity="1.0"
     inkscape:pageopacity="0.0"
     inkscape:pageshadow="2"
     inkscape:zoom="0.35"
     inkscape:cx="-87.142857"
     inkscape:cy="560"
     inkscape:document-units="mm"
     inkscape:current-layer="layer1"
     showgrid="false"
     inkscape:window-width="1366"
     inkscape:window-height="705"
     inkscape:window-x="-8"
     inkscape:window-y="107"
     inkscape:window-maximized="1" />
  <metadata
     id="metadata5">
    <rdf:RDF>
      <cc:Work
         rdf:about="">
        <dc:format>image/svg+xml</dc:format>
        <dc:type
           rdf:resource="http://purl.org/dc/dcmitype/StillImage" />
        <dc:title />
      </cc:Work>
    </rdf:RDF>
  </metadata>
  <g
     inkscape:label="Layer 1"
     inkscape:groupmode="layer"
     id="layer1">
    <path
       style="fill:#000000;stroke-width:0.26458335"
       d="m 17.502315,141.14366 c -0.86667,-0.92253 -0.82445,-2.15846 0.10093,-2.95444 l 0.72031,-0.61959 h 21.77236 c 20.40502,0 21.79778,-0.0291 22.17708,-0.46302 0.33493,-0.38317 0.43165,-1.78613 0.56091,-8.13593 0.15418,-7.57416 0.54567,-12.69833 1.38467,-18.12396 3.54279,-22.910456 12.96743,-37.295016 27.62964,-42.170326 4.73784,-1.57537 6.70275,-1.88196 12.038535,-1.87843 6.72705,0.004 10.73657,0.92953 16.66874,3.84582 3.8508,1.89307 6.08206,3.51796 9.40364,6.84805 6.09696,6.11259 10.19444,14.87985 12.55922,26.872596 1.30429,6.61458 1.89495,13.38774 2.4573,28.17812 l 0.1861,4.89479 23.45407,0.13229 c 22.59248,0.12744 23.47452,0.15081 24.01094,0.63632 0.7831,0.7088 0.7546,2.26068 -0.0555,3.02173 l -0.61237,0.57529 h -24.13932 c -26.18028,0 -24.80181,0.0762 -26.2297,-1.45092 -0.6026,-0.64449 -0.67323,-0.97047 -0.79375,-3.66316 l -0.13229,-2.95571 h -29.76562 c -27.627165,0 -29.889175,0.0336 -31.485415,0.46732 -1.97147,0.53572 -4.86018,1.92052 -10.29031,4.93303 -2.0944,1.16193 -4.39222,2.23788 -5.10625,2.39102 -0.85035,0.18236 -8.99093,0.27842 -23.59638,0.27842 h -22.29815 z m 53.73953,-7.95189 c 2.23845,-1.24366 4.26003,-2.50842 4.4924,-2.81057 0.35315,-0.45922 0.45003,-1.74901 0.59034,-7.85912 0.0923,-4.02036 0.35012,-9.15521 0.5729,-11.41078 0.74814,-7.57447 2.4166,-15.576746 4.35807,-20.902076 1.87058,-5.13091 5.24602,-11.09932 8.25026,-14.58801 0.70623,-0.82013 1.28406,-1.6253 1.28406,-1.78927 0,-0.48321 -3.45949,1.40078 -5.77224,3.1435 -9.66666,7.28404 -15.50115,21.11748 -17.522,41.544186 -0.30086,3.04117 -0.6777,16.93334 -0.45933,16.93334 0.0746,0 1.9671,-1.01754 4.20554,-2.2612 z m 31.865995,-21.20041 c 5.58043,-1.90145 6.77502,-11.65432 1.93494,-15.797246 -2.85179,-2.44103 -7.680335,-2.22107 -10.373975,0.47257 -2.75577,2.75577 -3.46553,7.647306 -1.63406,11.261546 0.83769,1.65309 3.03791,3.61108 4.59733,4.09118 1.67502,0.5157 3.913595,0.50423 5.475765,-0.0281 z m -2.32662,-5.52757 c -0.941195,-0.51069 -1.524675,-1.66848 -1.524675,-3.02541 0,-2.21043 1.480655,-3.630046 3.503175,-3.35877 3.96852,0.53229 3.6145,6.83625 -0.38119,6.78776 -0.48016,-0.006 -1.19895,-0.18744 -1.59731,-0.40358 z m 20.61998,4.91073 c 2.7715,-1.21189 4.62729,-4.31773 4.66293,-7.80384 0.0617,-6.034986 -4.72186,-9.902096 -10.24043,-8.278576 -1.6167,0.47562 -3.91314,2.85951 -4.53657,4.709306 -0.6292,1.86694 -0.64048,5.46651 -0.0223,7.12297 1.56618,4.19687 6.00341,6.05738 10.13639,4.25014 z m -6.97296,-5.1509 c -0.30606,-0.21437 -0.75162,-0.87751 -0.99015,-1.47364 -0.78982,-1.97395 0.29705,-4.07161 2.27602,-4.39275 2.54391,-0.412826 4.21565,2.75293 2.68631,5.08702 -0.7375,1.12557 -2.87824,1.5456 -3.97218,0.77937 z"
       id="path826"
       inkscape:connector-curvature="0"
       inkscape:export-filename="C:\Users\DanielValentin-Dev\git\BPMLab\BPMLab\Processing\BPMProcessingApp\data\hpOn.png"
       inkscape:export-xdpi="23.704872"
       inkscape:export-ydpi="23.704872" />
    <path
       inkscape:connector-curvature="0"
       id="path828"
       d="m 17.50232,243.95318 c -0.86667,-0.92253 -0.82445,-2.15846 0.10093,-2.95444 l 0.72031,-0.61959 h 21.77236 c 20.40502,0 21.79778,-0.0291 22.17708,-0.46302 0.33493,-0.38317 0.43165,-1.78613 0.56091,-8.13593 0.15418,-7.57416 0.54567,-12.69833 1.38467,-18.12396 3.54279,-22.91046 12.96743,-37.29502 27.62964,-42.17033 4.73784,-1.57537 6.70275,-1.88196 12.03854,-1.87843 6.72705,0.004 10.73657,0.92953 16.66874,3.84582 3.85079,1.89307 6.08205,3.51796 9.40363,6.84805 6.09696,6.11259 10.19444,14.87985 12.55922,26.8726 1.30429,6.61458 1.89495,13.38774 2.4573,28.17812 l 0.1861,4.89479 23.45407,0.13229 c 22.59248,0.12744 23.47452,0.15081 24.01094,0.63632 0.7831,0.7088 0.7546,2.26068 -0.0555,3.02173 l -0.61237,0.57529 h -24.13932 c -26.18028,0 -24.80181,0.0762 -26.2297,-1.45092 -0.6026,-0.64449 -0.67323,-0.97047 -0.79375,-3.66316 l -0.13229,-2.95571 h -29.76561 c -27.62717,0 -29.88918,0.0336 -31.48542,0.46732 -1.97147,0.53572 -4.86018,1.92052 -10.29031,4.93303 -2.0944,1.16193 -4.39222,2.23788 -5.10625,2.39102 -0.85035,0.18236 -8.99093,0.27842 -23.59638,0.27842 H 18.12171 Z m 53.73953,-7.95189 c 2.23845,-1.24366 4.26003,-2.50842 4.4924,-2.81057 0.35315,-0.45922 0.45003,-1.74901 0.59034,-7.85912 0.0923,-4.02036 0.35012,-9.15521 0.5729,-11.41078 0.74814,-7.57447 2.4166,-15.57675 4.35807,-20.90208 1.87058,-5.13091 5.24602,-11.09932 8.25026,-14.58801 0.70623,-0.82013 1.28406,-1.6253 1.28406,-1.78927 0,-0.48321 -3.45949,1.40078 -5.77224,3.1435 -9.66666,7.28404 -15.50115,21.11748 -17.522,41.54419 -0.30086,3.04117 -0.6777,16.93334 -0.45933,16.93334 0.0746,0 1.9671,-1.01754 4.20554,-2.2612 z"
       style="fill:#000000;stroke-width:0.26458335"
       sodipodi:nodetypes="cccscssscsssccscccscscscccsccccccccsccsc"
       inkscape:export-xdpi="23.704872"
       inkscape:export-ydpi="23.704872"
       inkscape:export-filename="C:\Users\DanielValentin-Dev\git\BPMLab\BPMLab\Processing\BPMProcessingApp\data\hpOff.png" />
  </g>
</svg>
