<?xml version="1.0" encoding="UTF-8" standalone="no"?>
<!-- Created with Inkscape (http://www.inkscape.org/) -->

<svg
   xmlns:dc="http://purl.org/dc/elements/1.1/"
   xmlns:cc="http://creativecommons.org/ns#"
   xmlns:rdf="http://www.w3.org/1999/02/22-rdf-syntax-ns#"
   xmlns:svg="http://www.w3.org/2000/svg"
   xmlns="http://www.w3.org/2000/svg"
   xmlns:sodipodi="http://sodipodi.sourceforge.net/DTD/sodipodi-0.dtd"
   xmlns:inkscape="http://www.inkscape.org/namespaces/inkscape"
   width="210mm"
   height="297mm"
   viewBox="0 0 210 297"
   version="1.1"
   id="svg8"
   inkscape:version="0.92.1 r15371"
   sodipodi:docname="Logo.svg">
  <defs
     id="defs2" />
  <sodipodi:namedview
     id="base"
     pagecolor="#ffffff"
     bordercolor="#666666"
     borderopacity="1.0"
     inkscape:pageopacity="0.0"
     inkscape:pageshadow="2"
     inkscape:zoom="0.45254834"
     inkscape:cx="682.04082"
     inkscape:cy="1140.5274"
     inkscape:document-units="mm"
     inkscape:current-layer="layer1"
     showgrid="false"
     inkscape:window-width="1280"
     inkscape:window-height="961"
     inkscape:window-x="1272"
     inkscape:window-y="-8"
     inkscape:window-maximized="1" />
  <metadata
     id="metadata5">
    <rdf:RDF>
      <cc:Work
         rdf:about="">
        <dc:format>image/svg+xml</dc:format>
        <dc:type
           rdf:resource="http://purl.org/dc/dcmitype/StillImage" />
        <dc:title />
      </cc:Work>
    </rdf:RDF>
  </metadata>
  <g
     inkscape:label="Layer 1"
     inkscape:groupmode="layer"
     id="layer1">
    <g
       id="g12914"
       inkscape:export-xdpi="32"
       inkscape:export-ydpi="32">
      <rect
         y="11.770292"
         x="33.729603"
         height="55.487839"
         width="163.77591"
         id="rect12909"
         style="opacity:1;fill:#000000;fill-opacity:1;stroke:#000000;stroke-width:1.79999995;stroke-linecap:square;stroke-linejoin:miter;stroke-miterlimit:4;stroke-dasharray:none;stroke-dashoffset:0;stroke-opacity:1;paint-order:fill markers stroke" />
      <g
         inkscape:export-ydpi="32"
         inkscape:export-xdpi="32"
         id="text4604"
         style="font-style:normal;font-variant:normal;font-weight:normal;font-stretch:normal;font-size:10.31527519px;line-height:125%;font-family:'Gill Sans Ultra Bold';-inkscape-font-specification:'Gill Sans Ultra Bold, ';text-align:center;letter-spacing:0px;word-spacing:0px;text-anchor:middle;fill:#ffffff;fill-opacity:1;stroke:none;stroke-width:0.26458332px;stroke-linecap:butt;stroke-linejoin:miter;stroke-opacity:1"
         transform="matrix(0.83671744,0,0,1.1951466,23.510734,4.6564418)"
         aria-label="LAB">
        <path
           sodipodi:nodetypes="cscsccscsccccscsscccscsscccccccccccccccccccccccccccccccccccsccccccccccccccccccccccscccccccccsccccccscccsscccccccccccccccccccccccccccccccscccccccccccccccccccccsccccccccccccccccc"
           inkscape:connector-curvature="0"
           d="m 199.99782,44.637783 h 4.8101 c 0.98385,0 1.72593,0.193076 2.22625,0.579227 0.50367,0.382793 0.75551,0.904937 0.75551,1.566431 0,0.721935 -0.3341,1.27262 -1.00231,1.652055 0.39622,0.208186 0.69675,0.451629 0.90158,0.73033 0.20483,0.275343 0.30724,0.619521 0.30724,1.032535 0,0.644705 -0.23169,1.160133 -0.69508,1.546284 -0.46002,0.386151 -1.1064,0.579227 -1.93915,0.579227 h -5.36414 z m 3.40485,1.546284 v 1.495916 h 0.0856 c 0.36936,0 0.63127,-0.0554 0.78573,-0.166213 0.15447,-0.114167 0.2317,-0.308921 0.2317,-0.584263 0,-0.49696 -0.29885,-0.74544 -0.89655,-0.74544 z m 0,2.785325 v 1.66213 h 0.10577 c 0.38951,0 0.66653,-0.05876 0.83106,-0.176287 0.16789,-0.120882 0.25184,-0.327389 0.25184,-0.619521 0,-0.577548 -0.31732,-0.866322 -0.95195,-0.866322 z m -10.94487,3.35448 h -3.40485 l 2.66948,-7.686089 h 4.8504 l 2.66948,7.686089 h -3.39981 l -0.44324,-1.299483 h -2.49823 z m 1.06275,-3.112715 h 1.25919 l -0.62959,-1.908931 z m -10.9499,3.112715 v -7.686089 h 3.40484 v 5.757011 h 2.98176 v 1.929078 z M 22.945302,5.4410018 H 12.166119 l 0.03012,14.0764072 0.03012,14.031141 0.265837,0.835228 c 0.677732,2.128316 1.979963,3.932329 3.949852,5.471989 2.937383,2.295878 6.337109,3.609357 10.358634,4.002053 v 1.34e-4 c 1.182741,0.115484 27.476361,0.147656 28.913704,0.03539 5.071341,-0.396202 9.389609,-2.279176 12.466383,-5.435718 2.708094,-2.778295 3.707273,-6.46329 2.69986,-9.957071 C 69.601248,24.063702 64.48283,20.317107 58.438997,19.393614 56.67949,19.12476 55.790266,19.11118 41.57873,19.135193 c -15.274392,0.02585 -13.784989,-0.01883 -16.937809,0.508415 -0.780132,0.130469 -1.480847,0.237176 -1.556965,0.237176 -0.117722,0 -0.138386,-1.079608 -0.138386,-7.24245 z M 177.90223,19.335164 c -2.11446,-0.0017 -4.83073,0.0017 -8.36243,0.0075 -15.1973,0.02585 -14.39562,0.005 -16.65621,0.433554 -3.69027,0.699671 -7.00649,2.426731 -9.3543,4.871728 -1.09001,1.135108 -1.80247,2.21859 -2.31758,3.524857 l -0.18726,0.490697 c -0.48353,1.288344 -0.47788,1.679819 -0.51715,8.604485 l -0.0392,7.03067 15.22156,0.0052 -0.0341,-2.343377 -0.0801,-5.499585 -1.4095,-0.250513 c -4.58254,-0.814294 -6.97326,-4.152579 -5.4855,-7.659931 0.58062,-1.368811 2.08575,-2.565518 4.11859,-3.27472 2.60415,-0.908524 5.30781,-0.634901 7.58347,0.767479 1.68096,1.03589 2.45515,1.921966 2.87412,3.289748 l 0.3347,1.092744 7.25343,-0.05631 7.25341,-0.05623 0.21314,-0.874479 c 0.83845,-3.441034 5.97051,-5.592561 10.1712,-4.264096 4.79762,1.517245 6.39464,6.181652 3.13942,9.169511 -0.92048,0.844884 -3.14439,1.787488 -4.6111,1.954388 l -1.08274,0.12319 v 5.466676 2.415362 h 13.4731 l -0.0362,-7.381656 c -0.0355,-7.116575 -0.0399,-7.263552 -0.25237,-8.039591 -0.42993,-1.570787 -1.38017,-3.195742 -2.59457,-4.437021 -2.51683,-2.572621 -6.07137,-4.290051 -10.0746,-4.867327 -1.27118,-0.183308 -2.19761,-0.237578 -8.54098,-0.243134 z m -86.700947,0.02644 -1.222814,0.155696 c -4.372038,0.556509 -8.095613,2.294388 -10.699263,4.993496 -1.617799,1.677134 -2.558905,3.503043 -2.851536,5.533004 -0.06717,0.465842 -0.103261,4.589319 -0.103261,11.782052 v 11.065354 h 5.931058 5.930879 V 48.08152 c 0,-2.645341 0.01685,-4.809686 0.03753,-4.809686 0.0208,0 0.778052,0.153847 1.682958,0.341958 2.89872,0.60262 1.751774,0.566968 17.407016,0.541197 l 13.83888,-0.02284 0.95063,-0.152852 c 3.20216,-0.515158 5.43581,-1.394749 7.84806,-3.090399 1.6603,-1.167062 2.4874,-1.95873 3.40366,-3.257366 1.18053,-1.673176 1.65976,-3.043702 1.754,-5.017326 0.11533,-2.413896 -0.45263,-4.35329 -1.85429,-6.332085 -2.31049,-3.261893 -6.56431,-5.75265 -11.2123,-6.565119 -2.08454,-0.364383 -1.65944,-0.355446 -16.75517,-0.355446 z m -48.26829,7.717313 c 9.229567,-7.54e-4 13.475792,0.02217 13.838889,0.07447 1.466063,0.211138 2.921058,0.957004 3.717085,1.905683 1.127538,1.343827 1.205724,3.029729 0.206295,4.44881 -0.743501,1.055678 -2.167745,1.89734 -3.893776,2.301023 l -0.691799,0.161788 -13.295492,0.01155 c -10.631486,0.0092 -13.424555,-0.0067 -13.940452,-0.07924 -1.110602,-0.156349 -1.925776,-0.474778 -2.823773,-1.102844 -1.366674,-0.955891 -1.885081,-1.94069 -1.788047,-3.396872 0.02797,-0.418693 0.125275,-0.932496 0.216286,-1.141834 0.538067,-1.237673 1.863161,-2.336157 3.396427,-2.815404 1.21293,-0.3791 0.671971,-0.366089 15.058357,-0.367093 z m 55.878577,0.215028 c 1.8066,-5.1e-5 4.09962,0.0025 7.01954,0.0067 l 13.24589,0.01941 0.84461,0.21179 c 2.25579,0.565579 3.80699,1.826814 4.2448,3.451142 0.18815,0.698131 0.0838,1.812848 -0.22943,2.450251 -0.66259,1.348228 -2.02572,2.284172 -3.92175,2.692733 -0.49702,0.107099 -1.65771,0.117977 -13.73934,0.128754 -7.25805,0.0067 -13.46343,-0.01339 -13.789645,-0.04401 -1.92574,-0.181032 -3.695668,-1.092903 -4.591873,-2.365793 -0.221951,-0.315242 -0.468605,-0.7912 -0.548202,-1.057636 -0.193159,-0.646264 -0.187542,-1.679166 0.01219,-2.24467 0.562257,-1.591905 2.31458,-2.811756 4.530621,-3.153873 0.460442,-0.07104 1.502754,-0.09467 6.922564,-0.09482 z m 57.21464,0.02878 c -1.41691,-0.0084 -3.30337,0.737164 -3.96135,1.619809 -0.7213,0.967664 -0.70265,2.451164 0.0415,3.305553 0.92624,1.063526 1.96892,1.419198 4.50545,1.536782 l 2.2695,0.105175 0.0786,8.047499 0.0233,2.366563 h 23.63929 v -2.419151 -7.994911 l 2.26947,-0.105175 c 3.43209,-0.159102 5.09038,-1.186992 5.09181,-3.155939 0.004,-2.653064 -3.75644,-4.157574 -6.70889,-2.685738 -1.22178,0.609064 -1.70424,1.575841 -1.70424,3.415389 v 1.584709 l -10.36787,0.03163 c -5.70241,0.01732 -10.53704,0.041 -10.74367,0.05255 -0.27025,0.01514 -0.38114,-0.451325 -0.3952,-1.662164 -0.0283,-2.41598 -1.17996,-3.695195 -3.61494,-4.015006 -0.13466,-0.01774 -0.27605,-0.02686 -0.42259,-0.02761 z m 11.45431,9.290626 c 1.33473,5e-6 2.41674,0.757518 2.41675,1.691959 0,0.934441 -1.08202,1.691955 -2.41675,1.69196 -1.33473,-1.2e-5 -2.41673,-0.757524 -2.41673,-1.69196 10e-6,-0.934435 1.08201,-1.691947 2.41673,-1.691959 z m 8.12503,0 c 1.33474,-3e-6 2.41676,0.757513 2.41677,1.691959 0,0.934447 -1.08203,1.691963 -2.41677,1.69196 -1.33473,-5e-6 -2.41675,-0.757519 -2.41675,-1.69196 1e-5,-0.934441 1.08202,-1.691954 2.41675,-1.691959 z"
           style="font-style:normal;font-variant:normal;font-weight:normal;font-stretch:normal;font-family:'Gill Sans Ultra Bold';-inkscape-font-specification:'Gill Sans Ultra Bold, ';fill:#ffffff;fill-opacity:1;stroke-width:0.26458332px"
           id="path4610" />
      </g>
    </g>
  </g>
</svg>
