<?xml version="1.0" encoding="UTF-8" standalone="no"?>
<!-- Created with Inkscape (http://www.inkscape.org/) -->

<svg
   xmlns:dc="http://purl.org/dc/elements/1.1/"
   xmlns:cc="http://creativecommons.org/ns#"
   xmlns:rdf="http://www.w3.org/1999/02/22-rdf-syntax-ns#"
   xmlns:svg="http://www.w3.org/2000/svg"
   xmlns="http://www.w3.org/2000/svg"
   xmlns:sodipodi="http://sodipodi.sourceforge.net/DTD/sodipodi-0.dtd"
   xmlns:inkscape="http://www.inkscape.org/namespaces/inkscape"
   version="1.1"
   id="svg2"
   width="620"
   height="310"
   viewBox="0 0 620 310"
   sodipodi:docname="Rearing.svg"
   inkscape:version="0.92.4 (5da689c313, 2019-01-14)"
   inkscape:export-filename="C:\Users\DanielValentin-Dev\git\BPMLab\BPMLab\Processing\BPMProcessingApp\data\rearing.png"
   inkscape:export-xdpi="300"
   inkscape:export-ydpi="300">
  <metadata
     id="metadata8">
    <rdf:RDF>
      <cc:Work
         rdf:about="">
        <dc:format>image/svg+xml</dc:format>
        <dc:type
           rdf:resource="http://purl.org/dc/dcmitype/StillImage" />
        <dc:title />
      </cc:Work>
    </rdf:RDF>
  </metadata>
  <defs
     id="defs6">
    <inkscape:perspective
       sodipodi:type="inkscape:persp3d"
       inkscape:vp_x="147.46442 : 553.73346 : 1"
       inkscape:vp_y="62.976977 : 596.32446 : 1"
       inkscape:vp_z="-19.348965 : -3.0258327 : 0"
       inkscape:persp3d-origin="112.60491 : 521.86351 : 1"
       id="perspective5414" />
  </defs>
  <sodipodi:namedview
     pagecolor="#ffffff"
     bordercolor="#666666"
     borderopacity="1"
     objecttolerance="10"
     gridtolerance="10"
     guidetolerance="10"
     inkscape:pageopacity="0"
     inkscape:pageshadow="2"
     inkscape:window-width="1366"
     inkscape:window-height="705"
     id="namedview4"
     showgrid="false"
     inkscape:zoom="1"
     inkscape:cx="57.039603"
     inkscape:cy="100.13598"
     inkscape:window-x="-8"
     inkscape:window-y="107"
     inkscape:window-maximized="1"
     inkscape:current-layer="svg2" />
  <path
     style="opacity:1;fill:#ffffff;fill-opacity:1;stroke:none;stroke-width:4.45053005;stroke-miterlimit:4;stroke-dasharray:none;stroke-dashoffset:0;stroke-opacity:1"
     d=""
     id="path1128"
     inkscape:connector-curvature="0" />
  <path
     style="opacity:1;fill:none;fill-opacity:1;stroke:#ffffff;stroke-width:6.29400015;stroke-miterlimit:4;stroke-dasharray:none;stroke-dashoffset:0;stroke-opacity:1"
     d="m 4.52942,234.27303 129.16538,0.26477 36.26207,71.95035 -138.47104,0.35917 z"
     id="rect838"
     inkscape:connector-curvature="0"
     sodipodi:nodetypes="ccccc"
     inkscape:export-filename="C:\Users\DanielValentin-Dev\git\BPMLab\BPMLab\Processing\BPMProcessingApp\data\rearingDown.png"
     inkscape:export-xdpi="300"
     inkscape:export-ydpi="300" />
  <path
     style="opacity:1;fill:#f3efba;fill-opacity:0.67058824;stroke:none;stroke-width:0.76311409;stroke-miterlimit:4;stroke-dasharray:none;stroke-dashoffset:0;stroke-opacity:0.80710659"
     d="m 4.52942,234.27304 26.95641,72.57428 138.47104,-0.35917 -36.26207,-71.95035 -6.08527,-0.0122 c -0.0251,2.37799 0.0461,2.54691 0.66269,3.45464 0.38492,0.56682 0.97856,1.60339 1.31924,2.30348 1.78097,3.65941 3.46358,6.93712 3.88404,7.56556 0.45124,0.67448 0.49532,0.68453 0.93769,0.21448 0.2607,-0.27698 0.85312,-0.4932 1.35256,-0.4932 1.2458,0 1.74889,0.93392 1.55237,2.88217 -0.128,1.26718 -0.29804,1.607 -1.46387,2.92233 -3.04016,3.43038 -5.12823,4.59537 -8.76044,4.88898 -1.30186,0.10514 -2.10602,0.32364 -2.55764,0.69485 -0.82948,0.68174 -3.64943,1.42897 -6.29654,1.66784 -1.91016,0.17241 -2.03478,0.22329 -2.03478,0.83559 0,0.76587 -0.59352,1.55083 -1.17461,1.55333 -0.22495,0 -0.72287,0.19409 -1.10659,0.42899 -0.38377,0.2349 -0.82688,0.42672 -0.98481,0.42672 -0.15781,0 -0.39182,0.39869 -0.52001,0.8853 -0.12831,0.48662 -0.50715,1.05033 -0.84205,1.25282 -1.74568,1.05549 -6.0316,1.52332 -7.48259,0.81716 -1.04726,-0.5097 -3.73915,-0.48143 -7.14243,0.0748 -3.35765,0.54887 -7.79746,0.42318 -9.64438,-0.27322 -0.75951,-0.28641 -1.64097,-0.91648 -2.24553,-1.60531 l -0.99576,-1.1344 -2.62565,0.56749 c -4.13666,0.89424 -10.28938,1.31486 -13.28434,0.90765 -1.37226,-0.18654 -2.7289,-0.41696 -3.01484,-0.51165 -0.49595,-0.16424 -0.50802,-0.12022 -0.26416,0.95292 0.30558,1.34399 0.13805,1.98515 -0.60989,2.33471 -2.3914,1.11774 -14.09719,1.11026 -16.64886,-0.009 -6.26953,-12.45277 -13.1371,10.62968 -12.86852,12.56463 0.72451,4.11798 1.41582,5.62718 3.91447,8.54865 2.01655,2.3578 2.54409,2.8006 5.00391,4.19748 2.47029,1.40279 6.41513,3.06369 10.20389,4.29638 3.21541,1.04614 8.4857,1.72825 13.37233,1.7304 l 4.74988,0.003 3.10429,-1.08302 c 8.07338,-2.81699 13.90175,-5.97448 20.52332,-11.11799 4.47147,-3.47333 6.85677,-4.94392 10.06162,-6.20381 2.50759,-0.98584 5.396,-1.63913 6.01536,-1.36007 0.90565,0.40802 0.21429,1.13097 -1.94915,2.03814 -4.0088,1.68093 -8.48146,4.5151 -12.76862,8.09118 -2.10209,1.75342 -5.21357,4.20751 -5.64096,4.44888 -0.19045,0.10773 -0.63767,0.41903 -0.99384,0.69255 -1.66548,1.27913 -6.04678,4.09593 -6.9583,4.47348 -0.55926,0.23176 -1.26892,0.58641 -1.57711,0.78813 -1.37437,0.89952 -6.03674,2.74967 -8.59868,3.41219 -2.59221,0.67029 -10.07375,0.94841 -14.37144,0.53449 v 0 c -3.6931,-0.35566 -6.80263,-1.18439 -11.38989,-3.0346 -6.08525,-2.45436 -9.31277,-4.41609 -12.30195,-7.47845 -1.85854,-1.90406 -2.88652,-3.51263 -4.15519,-6.5004 -1.45214,-3.41995 -2.01463,-5.66327 -2.22032,-8.8564 -0.22463,-3.48621 0.086,-5.32301 1.45105,-8.57934 1.11754,-2.66598 1.4806,-3.15812 4.81124,-6.52279 1.37154,-1.38553 2.67403,-2.9285 2.89446,-3.42895 0.59239,-1.34494 0.43166,-3.34503 -0.55615,-6.91711 -1.93099,-6.9828 -2.00415,-12.16381 -0.18699,-18.52492 z"
     id="path4569"
     inkscape:connector-curvature="0"
     sodipodi:nodetypes="cccccssccscccccscssccccccccccccccscccccsccccccccccccccsccsccc"
     inkscape:export-filename="C:\Users\DanielValentin-Dev\git\BPMLab\BPMLab\Processing\BPMProcessingApp\data\rearingDown.png"
     inkscape:export-xdpi="300"
     inkscape:export-ydpi="300" />
  <path
     inkscape:connector-curvature="0"
     style="opacity:1;fill:#ffffff;fill-opacity:1;stroke:#ffffed;stroke-width:1.37220776;stroke-miterlimit:4;stroke-dasharray:none;stroke-dashoffset:0;stroke-opacity:0.67058824"
     d="m 69.07114,212.14089 c -2.71733,-0.19323 -4.91264,-0.17915 -7.04919,0.10712 -2.13654,0.28629 -4.21427,0.84438 -6.70134,1.73506 -2.20613,0.79001 -4.632,2.29035 -6.89756,4.18434 -2.26556,1.89399 -4.37133,4.18049 -5.93429,6.54139 -0.89256,1.34821 -2.17927,3.61329 -2.17927,3.83616 0,0.0716 -0.32287,0.75126 -0.71651,1.50885 -0.39364,0.75755 -1.17657,2.98313 -1.74223,4.94921 -0.93856,3.26226 -1.03945,3.88927 -1.14167,7.15148 -0.0579,1.84857 0.01,3.62128 0.19325,5.21406 0.18347,1.59281 0.48247,3.00536 0.88301,4.13079 0.55182,1.55055 1.29801,5.25439 1.30221,6.46402 0.003,1.13244 -0.25984,2.14019 -0.90976,3.21713 -0.64993,1.07692 -1.68816,2.22361 -3.22878,3.63673 -2.05726,1.88698 -3.22708,3.41556 -4.12664,5.38669 -0.50531,1.10728 -0.88126,2.28118 -1.1268,3.49986 -0.24555,1.21866 -0.36164,2.48197 -0.34785,3.77068 0.0138,1.28869 0.15842,2.60208 0.4311,3.91947 0.27267,1.31738 0.67297,2.63858 1.2041,3.94328 0.98256,2.41378 1.88141,4.18858 2.94633,5.67239 1.06491,1.48379 2.29706,2.67658 3.94528,3.9284 1.20341,0.91396 2.70469,1.82231 4.38531,2.68441 1.68061,0.86211 3.54187,1.67678 5.46453,2.39871 3.84532,1.44389 7.93981,2.5185 11.34233,2.87191 2.21636,0.23023 10.88844,-0.11184 12.66536,-0.49998 1.69213,-0.36956 4.26587,-1.29359 6.79053,-2.3749 2.52465,-1.08132 4.99914,-2.31853 6.49025,-3.31236 3.13352,-2.08852 8.53707,-5.99868 8.88359,-6.4283 0.2011,-0.24906 0.004,-0.16474 -0.43705,0.19046 -2.24005,1.80058 -6.36764,4.12245 -10.5723,6.10689 -4.20465,1.98445 -8.48878,3.63325 -11.0361,4.09209 -1.7702,0.31888 -3.74871,0.44478 -5.85401,0.39284 -2.1053,-0.052 -4.33737,-0.28201 -6.60917,-0.67557 -2.27181,-0.39354 -4.58327,-0.95171 -6.85297,-1.65767 -2.26971,-0.70595 -4.49532,-1.56133 -6.59431,-2.55049 -2.28825,-1.07832 -3.77703,-1.86911 -5.05128,-2.81535 -1.27424,-0.94624 -2.33441,-2.04591 -3.77284,-3.73497 -0.90128,-1.0583 -1.59733,-2.11737 -2.17036,-3.357 -0.57303,-1.23962 -1.02306,-2.65905 -1.43303,-4.43731 -0.42214,-1.83096 -0.57165,-3.38425 -0.42218,-4.90159 0.14949,-1.51731 0.59817,-3.00129 1.36763,-4.69623 0.46189,-1.01743 1.06878,-1.96439 1.85818,-2.88381 0.78939,-0.91939 1.76011,-1.80957 2.94335,-2.70821 1.72983,-1.31382 2.62175,-2.33279 3.72825,-4.26173 0.27614,-0.48137 0.54789,-0.79435 0.80868,-0.94639 0.2608,-0.15207 0.50931,-0.14475 0.73436,0.0178 0.45008,0.32514 0.80841,1.26671 0.99301,2.76179 0.0847,0.68572 0.21785,1.22533 0.48758,1.64874 0.26974,0.42342 0.67757,0.73089 1.31113,0.95531 1.26715,0.44885 3.43844,0.5624 7.23353,0.59522 3.21532,0.0283 6.15851,-0.0515 6.53782,-0.1756 0.3265,-0.10696 0.4962,-0.17978 0.56488,-0.36307 0.0687,-0.18328 0.0349,-0.4773 -0.0446,-1.02972 -0.13176,-0.91608 -0.0963,-1.13845 0.16352,-1.03865 0.18197,0.0701 0.45529,0.56841 0.60651,1.1071 0.15729,0.56019 0.42127,0.93968 0.64814,1.05949 0.22686,0.11976 0.41623,-0.0198 0.41623,-0.49702 0,-0.33115 -0.15255,-1.03231 -0.33893,-1.55647 -0.19927,-0.55992 -0.50865,-0.94736 -1.05248,-1.22615 -0.54382,-0.27877 -1.32233,-0.44952 -2.46469,-0.57734 -0.68865,-0.0771 -1.24601,-0.22954 -1.63222,-0.43452 -0.38621,-0.20497 -0.60057,-0.46151 -0.60057,-0.74997 0,-0.11062 0.93139,-0.4266 2.07225,-0.70234 1.47283,-0.35593 3.39959,-1.31402 5.1702,-2.47311 1.7706,-1.1591 3.38727,-2.51907 4.23367,-3.6814 1.07443,-1.47543 2.11811,-3.48143 2.93444,-5.52358 0.81633,-2.04214 1.40492,-4.12048 1.56682,-5.73785 0.11914,-1.19017 0.025,-2.51887 -0.23488,-3.8808 -0.25993,-1.36192 -0.68695,-2.75752 -1.2368,-4.0772 -0.54985,-1.31969 -1.22055,-2.56438 -1.97116,-3.62783 -0.7506,-1.06345 -1.58168,-1.94535 -2.44387,-2.53858 -1.25934,-0.86647 -2.94649,-1.5611 -4.68559,-1.99098 -1.7391,-0.4299 -3.52938,-0.59472 -4.99479,-0.40178 -1.03569,0.13622 -1.99407,0.32868 -2.1317,0.42855 -0.39575,0.28704 -0.96553,-0.0922 -0.8176,-0.54462 0.15608,-0.47743 1.29972,-0.82011 2.77092,-0.96424 1.4712,-0.14415 3.27196,-0.0893 4.7391,0.22916 0.77372,0.16801 2.27887,0.69633 3.34769,1.17554 1.66671,0.74721 2.2192,1.18646 3.87096,3.07428 1.58021,1.80608 2.09896,2.63274 2.88687,4.61291 0.86482,2.17341 1.39625,4.09142 1.61439,5.91045 0.21813,1.81905 0.1222,3.53936 -0.26758,5.32717 -0.48001,2.20155 -1.4724,4.63589 -2.67875,6.77055 -1.20635,2.13465 -2.62687,3.97187 -3.96015,4.97895 -1.94015,1.46549 -5.42055,3.58804 -5.90753,3.60402 -0.98882,0.0326 1.76913,1.12168 4.29611,1.69636 1.91424,0.43532 4.02637,0.6157 6.37133,0.54461 2.34496,-0.071 4.92428,-0.39337 7.7776,-0.97317 l 3.92745,-0.80056 0.14567,-1.22911 c 0.17663,-1.51299 1.90455,-7.54432 2.16144,-7.54432 0.41952,0 0.13806,2.04337 -0.6957,5.05037 l -0.88598,3.19035 0.45785,1.0803 c 0.33151,0.78357 0.68491,1.30401 1.26356,1.69339 0.57866,0.38937 1.38323,0.6484 2.61037,0.91365 2.05705,0.44466 2.45255,0.44109 6.69242,-0.0506 4.91393,-0.56971 7.2106,-0.61096 8.52385,-0.15774 0.46802,0.16143 1.26315,0.29166 1.76898,0.29166 0.42969,0 0.65897,-0.0122 0.76111,-0.10712 0.10215,-0.0952 0.0774,-0.27304 0.006,-0.60712 -0.10086,-0.47149 -0.0451,-0.70222 0.11001,-0.69342 0.15507,0.009 0.41108,0.25827 0.71057,0.74104 0.31185,0.50267 0.60602,0.69844 0.86814,0.58033 0.32177,-0.14506 0.36735,-0.4321 0.24082,-1.51481 -0.12455,-1.06663 -0.0878,-1.30776 0.18136,-1.20233 0.18542,0.0725 0.43484,0.61285 0.55299,1.19934 0.18573,0.92181 0.29815,1.05468 0.83247,0.97913 0.55617,-0.0786 0.86244,-0.30417 0.91571,-0.66365 0.0533,-0.3595 -0.14752,-0.85585 -0.60056,-1.47316 -1.00958,-1.37562 -1.9188,-2.28132 -2.8066,-2.76476 -0.8878,-0.48346 -1.75412,-0.54259 -2.67875,-0.22023 -0.54128,0.18875 -1.39308,0.48058 -1.89386,0.64878 -0.63973,0.21487 -1.74314,0.22847 -2.77389,0.10423 -1.03075,-0.12434 -1.988,-0.38572 -2.33982,-0.72022 -0.54112,-0.51443 -0.54199,-0.52907 -0.0803,-1.12793 0.25695,-0.33325 1.07573,-0.80811 1.82251,-1.05649 1.51529,-0.50404 3.08995,-1.47962 3.73419,-2.3154 0.40761,-0.52877 0.39843,-0.58033 -0.18433,-1.22315 -0.60958,-0.67234 -0.80899,-1.43149 -0.37758,-1.43149 0.12644,0 0.81127,0.72426 1.52222,1.61006 0.76355,0.95132 1.38358,1.61344 2.06035,2.13978 0.67677,0.52634 1.41075,0.919 2.39928,1.3303 1.55177,0.64566 3.26317,1.07871 5.02452,1.28863 1.76135,0.20995 3.57262,0.19495 5.32778,-0.0565 2.55211,-0.36567 3.97948,-0.77865 4.80748,-1.39279 l 0.54407,-0.40474 -0.66597,-1.10709 c -0.38099,-0.63255 -0.574,-0.94914 -0.90679,-1.03568 -0.33279,-0.0865 -0.80546,0.057 -1.74818,0.34522 -1.35201,0.41344 -2.02865,0.49365 -2.03061,0.32736 -0.002,-0.16627 0.67125,-0.57981 2.02169,-1.15471 0.90522,-0.38546 2.12772,-1.03172 2.71741,-1.43744 0.62131,-0.42748 0.9593,-0.64658 1.14166,-0.69044 0.18237,-0.0439 0.20812,0.0881 0.20812,0.36605 0,0.22706 -0.32649,0.64086 -0.72841,0.91961 -0.40192,0.27887 -0.73138,0.59529 -0.73138,0.70533 0,0.10986 0.51882,0.73681 1.15356,1.3928 0.56463,0.5835 0.86007,0.88107 1.17437,1.00888 0.3143,0.12785 0.64774,0.0879 1.28735,-0.006 1.21834,-0.17872 2.15446,-0.42369 2.91957,-0.78567 0.76511,-0.36199 1.35804,-0.84122 1.89088,-1.49102 0.84445,-1.02975 1.25137,-1.86967 1.2041,-2.87785 -0.0473,-1.00819 -0.54924,-2.18664 -1.52222,-3.89864 -0.65714,-1.15628 -1.92607,-3.59228 -2.82146,-5.41645 -1.31949,-2.68811 -2.03358,-3.77869 -3.76987,-5.7438 -1.48443,-1.68007 -3.12325,-3.09759 -4.67072,-4.09507 -1.54748,-0.99747 -3.00465,-1.57433 -4.12665,-1.57433 -0.6989,0 -1.05658,0.0222 -1.19221,0.32736 -0.13563,0.30507 -0.0486,0.89442 0.14568,2.02967 0.20932,1.22327 0.26151,2.16579 0.14568,2.90464 -0.11583,0.73885 -0.40068,1.27384 -0.86517,1.6785 -0.57187,0.49817 -0.71623,0.5159 -1.33789,0.16964 -0.65335,-0.36405 -1.10998,-1.21799 -2.28333,-4.28851 -0.24049,-0.62932 -0.65954,-1.17075 -1.23978,-1.60708 -0.58024,-0.43632 -1.31985,-0.76863 -2.20009,-0.9821 -0.78649,-0.19062 -1.43005,-0.44857 -1.43005,-0.57437 0,-0.37241 2.02209,-0.26238 3.2704,0.17855 l 1.15653,0.4107 -0.16055,-0.76782 c -0.17072,-0.80329 -0.58103,-1.60033 -1.28437,-2.45823 -0.70335,-0.8579 -1.70183,-1.77574 -3.04445,-2.81833 -0.94129,-0.73094 -1.49894,-1.21077 -1.73033,-1.50888 -0.2314,-0.29809 -0.13604,-0.41366 0.23784,-0.41366 0.57404,0 3.89821,2.53705 4.96803,3.7915 0.56929,0.66749 0.93924,1.21085 1.2814,2.05051 0.34217,0.83967 0.65801,1.97351 1.11491,3.82425 0.75648,3.06425 1.29196,4.34505 1.81953,4.34505 0.50593,0 0.77791,-0.51573 0.85328,-1.35708 0.0754,-0.84136 -0.0448,-2.00851 -0.31812,-3.30343 -0.27334,-1.29493 -0.70257,-2.71949 -1.24275,-4.0802 -0.54018,-1.3607 -1.19248,-2.65758 -1.91764,-3.69627 -0.88313,-1.26491 -1.5143,-2.06748 -2.19712,-2.67845 -0.68281,-0.61098 -1.41538,-1.03061 -2.50036,-1.52672 -1.69839,-0.77661 -2.15999,-0.86045 -4.56964,-0.85414 -1.51562,0.005 -2.55937,0.0949 -3.46365,0.37797 -0.90427,0.28308 -1.6682,0.75826 -2.62821,1.52969 -0.89179,0.71661 -1.65441,1.64107 -2.27143,2.70227 -0.61703,1.06119 -1.08894,2.25986 -1.39736,3.52663 -0.3084,1.26677 -0.45325,2.60106 -0.4192,3.93436 0.0341,1.33331 0.24669,2.66463 0.65705,3.92544 0.37212,1.14331 0.87856,2.23768 1.48952,3.2558 0.61095,1.01814 1.3282,1.9596 2.12278,2.79454 0.79459,0.83493 1.66656,1.56391 2.58956,2.15764 0.923,0.59374 1.89662,1.05365 2.89282,1.34816 0.67201,0.19867 1.06106,0.40044 1.14166,0.55355 0.0806,0.1531 -0.14908,0.25594 -0.71651,0.25594 -0.86976,0 -4.50423,-1.58497 -4.50423,-1.9642 0,-0.10681 -0.38982,-0.44158 -0.86814,-0.74401 -0.85702,-0.54186 -2.77846,-2.93638 -3.86799,-4.82124 -0.70066,-1.2122 -1.56518,-4.22539 -1.75709,-6.12771 -0.0991,-0.98274 -0.0223,-2.23042 0.1873,-3.49391 0.20962,-1.26349 0.55236,-2.54325 0.98707,-3.58318 0.64174,-1.53519 0.67679,-1.74406 0.32406,-1.99991 -0.73184,-0.53095 -2.91269,-2.48165 -4.13853,-3.70223 -1.1614,-1.1564 -2.40181,-2.17046 -3.74312,-3.05046 -1.34131,-0.88003 -2.78301,-1.62647 -4.34666,-2.24694 -1.56364,-0.62046 -3.24962,-1.11623 -5.07803,-1.49398 -1.82841,-0.37775 -3.79869,-0.63679 -5.93428,-0.78866 z"
     id="path6083"
     inkscape:export-filename="C:\Users\DanielValentin-Dev\git\BPMLab\BPMLab\Processing\BPMProcessingApp\data\rearingDown.png"
     inkscape:export-xdpi="300"
     inkscape:export-ydpi="300" />
  <path
     inkscape:connector-curvature="0"
     style="opacity:0.67000002;fill:#ffffff;fill-opacity:1;stroke:#ffffff;stroke-width:1.37220776;stroke-miterlimit:4;stroke-dasharray:none;stroke-dashoffset:0;stroke-opacity:0.67058824"
     d="m 113.08176,218.31028 c -0.78184,0.12403 -1.48046,0.42058 -2.25063,0.91662 -0.96366,0.62076 -1.44401,0.97009 -1.43303,1.48209 0.011,0.51199 0.5148,1.18736 1.51925,2.46715 1.61346,2.05583 3.43986,5.54952 3.43986,6.57712 0,0.28545 0.38273,0.38985 1.41817,0.38986 1.37156,0 2.79034,0.36908 4.21881,1.08924 1.42847,0.72015 2.86536,1.79251 4.27827,3.1963 1.25104,1.24288 1.67703,1.5293 1.7452,1.18149 0.0496,-0.25312 0.0388,-1.74741 -0.0268,-3.32129 -0.0781,-1.90359 -0.29873,-3.48226 -0.66002,-4.71706 -0.34851,-1.19154 -0.84288,-2.31119 -1.45682,-3.33022 -0.61393,-1.01904 -1.347,-1.93656 -2.17332,-2.73203 -0.82633,-0.79547 -1.7466,-1.46716 -2.73227,-1.98802 -0.98567,-0.52084 -2.03868,-0.89108 -3.13066,-1.08626 -1.10865,-0.19816 -1.97422,-0.249 -2.75605,-0.12495 z"
     id="path6085"
     inkscape:export-filename="C:\Users\DanielValentin-Dev\git\BPMLab\BPMLab\Processing\BPMProcessingApp\data\rearingDown.png"
     inkscape:export-xdpi="300"
     inkscape:export-ydpi="300" />
  <path
     inkscape:connector-curvature="0"
     style="opacity:1;fill:#000000;fill-opacity:1;stroke:#ffffff;stroke-width:1.37220776;stroke-miterlimit:4;stroke-dasharray:none;stroke-dashoffset:0;stroke-opacity:0.00507615"
     d="m 70.08497,210.93856 c -3.41436,-0.3266 -6.78599,-0.34875 -9.19279,0.0178 -2.17825,0.3318 -4.36752,0.98594 -6.49025,1.93444 -2.12273,0.9485 -4.17883,2.19136 -6.0978,3.69031 -1.20283,0.93958 -2.36876,2.03279 -3.47257,3.24392 -1.10382,1.21115 -2.14588,2.53993 -3.10093,3.94925 -1.91011,2.81861 -3.47281,5.95979 -4.48936,9.13057 -0.56489,1.76189 -0.99266,3.42174 -1.28438,5.03848 -0.29172,1.61672 -0.44675,3.18909 -0.46677,4.77658 -0.04,3.17498 0.46044,6.40674 1.49843,10.16029 0.4939,1.78602 0.78147,3.17975 0.87112,4.29446 0.0896,1.11471 -0.019,1.95242 -0.31515,2.6249 -0.22043,0.50042 -1.52127,2.04288 -2.89281,3.42842 -1.66533,1.68233 -2.59091,2.64678 -3.2377,3.52367 -0.64678,0.87688 -1.01696,1.66687 -1.57573,2.99987 -0.68258,1.62817 -1.09984,2.90018 -1.32005,4.2022 -0.22022,1.30201 -0.24313,2.63466 -0.13082,4.3778 0.10284,1.59653 0.29437,2.95468 0.64218,4.34206 0.34782,1.38741 0.85264,2.80178 1.57871,4.51172 0.63434,1.4939 1.20722,2.64395 1.85521,3.65759 0.64799,1.01364 1.3719,1.8931 2.30117,2.84512 1.49459,1.5312 3.04775,2.78702 4.98884,3.9671 1.94109,1.18007 4.2682,2.2816 7.31082,3.50878 2.29364,0.92508 4.21995,1.59743 6.0324,2.08026 1.81245,0.48283 3.51095,0.77748 5.3575,0.95533 v 0.003 c 2.14885,0.20697 5.09355,0.24153 7.82517,0.13988 2.73162,-0.10164 5.25063,-0.34042 6.54674,-0.67557 2.56197,-0.66248 7.2238,-2.51104 8.59817,-3.41057 0.30818,-0.20171 1.01948,-0.55688 1.57871,-0.78866 0.91152,-0.37757 5.29151,-3.19392 6.95702,-4.47303 0.35615,-0.2735 0.80258,-0.58601 0.99301,-0.69343 0.42737,-0.24138 3.54082,-2.69576 5.64292,-4.44921 2.1436,-1.78803 4.3322,-3.39011 6.48728,-4.75575 2.15508,-1.36564 4.27773,-2.49568 6.28214,-3.33617 1.0817,-0.45359 1.79569,-0.8602 2.12575,-1.20531 0.33007,-0.34511 0.27446,-0.62929 -0.17838,-0.83331 -0.61937,-0.27903 -3.50699,0.37425 -6.01456,1.36007 -1.60241,0.62996 -2.99891,1.31437 -4.55477,2.27372 -1.55585,0.95935 -3.27042,2.19468 -5.50616,3.93138 -3.31078,2.57173 -6.42503,4.64688 -9.71902,6.43128 -3.29398,1.78439 -6.7675,3.27881 -10.8042,4.6873 l -3.1039,1.08329 -4.751,-0.003 c -2.4433,-10e-4 -4.98342,-0.17166 -7.31379,-0.4732 -2.33038,-0.30153 -4.45145,-0.7358 -6.05916,-1.25887 -3.78875,-1.23267 -7.73337,-2.89167 -10.20363,-4.29447 -1.22993,-0.69843 -1.9754,-1.15804 -2.66686,-1.73803 -0.69147,-0.57998 -1.32858,-1.28227 -2.33685,-2.4612 -1.24931,-1.46072 -2.04662,-2.567 -2.62226,-3.82425 -0.57564,-1.25722 -0.93105,-2.66402 -1.2933,-4.723 -0.23153,-1.31598 -0.29207,-2.44979 -0.16649,-3.58021 0.12558,-1.13043 0.43794,-2.25741 0.96031,-3.55938 0.42308,-1.05458 0.99441,-2.01167 1.78682,-2.96415 0.79242,-0.9525 1.80747,-1.90066 3.12175,-2.93442 2.23822,-1.76052 3.20499,-2.80697 3.63311,-3.9284 l 0.32704,-0.8571 0.19028,0.71425 c 0.10466,0.39322 0.25424,1.05869 0.33298,1.4791 0.11651,0.62267 0.43931,1.23695 0.90679,1.77076 0.46748,0.53383 1.08108,0.98849 1.77791,1.29459 1.27582,0.5597 4.83975,0.84015 8.38411,0.84224 3.54435,0.002 7.0695,-0.27444 8.26518,-0.83331 0.37394,-0.17479 0.60151,-0.42266 0.69868,-0.7946 0.0972,-0.37196 0.0636,-0.86959 -0.0892,-1.54161 -0.12198,-0.5366 -0.18022,-0.81589 -0.14568,-0.94044 0.0345,-0.12449 0.1623,-0.094 0.41029,-0.0122 0.2859,0.0946 1.64248,0.32532 3.01471,0.51189 1.49748,0.20359 3.78413,0.20164 6.21375,0.0357 2.42963,-0.16592 5.00168,-0.49629 7.07001,-0.94342 l 2.62523,-0.56544 0.99599,1.13388 c 0.60456,0.68884 1.48516,1.31769 2.24468,1.60409 0.92345,0.34816 2.49694,0.55428 4.25746,0.60415 1.76052,0.0498 3.70841,-0.0559 5.38724,-0.33035 1.70162,-0.27808 3.22439,-0.42462 4.45368,-0.43748 1.22929,-0.0122 2.16404,0.10819 2.68767,0.36308 0.72549,0.3531 2.16211,0.41072 3.63311,0.25 1.47101,-0.16074 2.97732,-0.54067 3.85015,-1.06842 0.33491,-0.20252 0.71306,-0.76631 0.84139,-1.25292 0.12815,-0.48662 0.36248,-0.88389 0.52029,-0.88389 0.15793,0 0.60334,-0.19365 0.98706,-0.42855 0.38373,-0.23492 0.88105,-0.42856 1.10599,-0.42856 0.58113,-0.003 1.17437,-0.78761 1.17437,-1.5535 0,-0.30618 0.0304,-0.47242 0.30028,-0.58331 0.26991,-0.11093 0.77822,-0.16676 1.73331,-0.25297 2.64709,-0.23889 5.46749,-0.9848 6.297,-1.6666 0.45162,-0.37121 1.25503,-0.58828 2.55686,-0.69342 1.81612,-0.14674 3.24634,-0.51396 4.60234,-1.27078 1.356,-0.75681 2.63927,-1.9037 4.15935,-3.61889 1.1657,-1.31533 1.33475,-1.65534 1.46276,-2.9225 0.0983,-0.97413 0.022,-1.69562 -0.23488,-2.17253 -0.25685,-0.47691 -0.69418,-0.70831 -1.31707,-0.70831 -0.49943,0 -1.09205,0.21375 -1.35276,0.49106 -0.22118,0.235 -0.34113,0.34948 -0.4638,0.32142 -0.12268,-0.028 -0.2471,-0.19846 -0.47272,-0.53571 -0.42047,-0.62847 -2.10487,-3.90575 -3.88583,-7.56515 -0.34068,-0.70007 -0.93216,-1.73667 -1.31708,-2.30348 -0.34445,-0.50715 -0.52095,-0.7783 -0.60353,-1.33327 -0.0826,-0.55498 -0.0717,-1.39477 -0.0476,-3.03857 0.0383,-2.59967 -0.0573,-3.76636 -0.42813,-5.26167 -0.52103,-2.10099 -1.30137,-3.91995 -2.35766,-5.48489 -1.05628,-1.56497 -2.38689,-2.87551 -4.01069,-3.95222 -1.08744,-0.72105 -2.15705,-1.25778 -3.19607,-1.61304 -1.03902,-0.35524 -2.04761,-0.52819 -3.02066,-0.51783 -0.97305,0.0107 -1.91113,0.20455 -2.80065,0.58034 -0.88952,0.37577 -1.73274,0.93152 -2.52117,1.67254 -0.43975,0.41325 -0.68995,0.63061 -0.91869,0.70235 -0.22873,0.0718 -0.4345,-10e-4 -0.78489,-0.16665 -1.16698,-0.55111 -2.41285,-0.90702 -3.66582,-1.07733 -1.25297,-0.17031 -2.51419,-0.15579 -3.71339,0.0328 -1.1992,0.18851 -2.33609,0.55196 -3.34175,1.07733 -1.00566,0.52537 -1.87856,1.21324 -2.55091,2.05349 l -0.57975,0.72319 -0.90679,-0.54165 c -0.4978,-0.29815 -1.66174,-1.27339 -2.58659,-2.16658 -1.87472,-1.81052 -3.65998,-3.28625 -5.37534,-4.44029 -1.71536,-1.15404 -3.3605,-1.98364 -4.95316,-2.50584 -2.56993,-0.84273 -6.02521,-1.47392 -9.43956,-1.80052 z m -1.01383,1.20233 c 2.13559,0.15192 4.10588,0.41091 5.93428,0.78866 1.82841,0.37775 3.51439,0.87352 5.07804,1.49399 1.56365,0.62047 3.00534,1.3669 4.34665,2.24693 1.34131,0.88001 2.58172,1.89406 3.74312,3.05046 1.22585,1.22058 3.4067,3.17128 4.13854,3.70223 0.35273,0.25585 0.31767,0.46473 -0.32407,1.99992 -0.43471,1.03992 -0.77744,2.31968 -0.98706,3.58317 -0.20962,1.26349 -0.28645,2.51117 -0.18731,3.49391 0.19191,1.90232 1.05644,4.91551 1.7571,6.12771 1.08953,1.88486 3.01096,4.27938 3.86799,4.82124 0.47831,0.30243 0.86814,0.6372 0.86814,0.74401 0,0.37923 3.63446,1.9642 4.50422,1.9642 0.56744,0 0.79712,-0.10285 0.71652,-0.25594 -0.0806,-0.15311 -0.46965,-0.35488 -1.14167,-0.55355 -0.9962,-0.29451 -1.96981,-0.75442 -2.89281,-1.34816 -0.923,-0.59373 -1.79498,-1.3227 -2.58956,-2.15764 -0.79459,-0.83494 -1.51183,-1.7764 -2.12279,-2.79454 -0.61095,-1.01812 -1.1174,-2.11249 -1.48951,-3.2558 -0.41036,-1.26081 -0.623,-2.59213 -0.65705,-3.92544 -0.0341,-1.33329 0.1108,-2.66759 0.4192,-3.93436 0.30841,-1.26676 0.78032,-2.46543 1.39735,-3.52663 0.61703,-1.0612 1.37964,-1.98566 2.27144,-2.70227 0.96001,-0.77143 1.72394,-1.24661 2.62821,-1.52969 0.90427,-0.2831 1.94802,-0.37339 3.46365,-0.37797 2.40965,-0.006 2.87124,0.0776 4.56963,0.85414 1.08498,0.49612 1.81755,0.91574 2.50037,1.52672 0.68281,0.61097 1.31399,1.41354 2.19711,2.67845 0.72516,1.03869 1.37746,2.33557 1.91764,3.69627 0.54019,1.36071 0.96941,2.78527 1.24275,4.0802 0.27334,1.29492 0.39349,2.46207 0.31812,3.30343 -0.0754,0.84135 -0.34734,1.35708 -0.85327,1.35708 -0.52757,0 -1.06306,-1.2808 -1.81953,-4.34505 -0.45691,-1.85074 -0.77275,-2.98458 -1.11491,-3.82425 -0.34216,-0.83966 -0.71212,-1.38301 -1.2814,-2.05051 -1.06983,-1.25445 -4.39399,-3.7915 -4.96803,-3.7915 -0.37389,0 -0.46925,0.11565 -0.23785,0.41366 0.2314,0.29811 0.78905,0.77794 1.73034,1.50888 1.34262,1.04259 2.3411,1.96043 3.04444,2.81833 0.70335,0.8579 1.11366,1.65494 1.28438,2.45823 l 0.16054,0.76782 -1.15653,-0.4107 c -1.24831,-0.44092 -3.27039,-0.55095 -3.27039,-0.17855 0,0.12586 0.64356,0.38376 1.43005,0.57438 0.88024,0.21346 1.61985,0.54577 2.20008,0.9821 0.58024,0.43632 0.99929,0.97775 1.23978,1.60707 1.17336,3.07052 1.62999,3.92446 2.28333,4.28851 0.62167,0.34626 0.76602,0.32854 1.33789,-0.16964 0.4645,-0.40466 0.74935,-0.93965 0.86517,-1.67849 0.11583,-0.73885 0.0637,-1.68138 -0.14567,-2.90465 -0.19427,-1.13525 -0.28131,-1.7246 -0.14568,-2.02967 0.13563,-0.30507 0.49331,-0.32736 1.19221,-0.32736 1.122,0 2.57917,0.57686 4.12664,1.57433 1.54748,0.99748 3.1863,2.415 4.67072,4.09507 1.73629,1.96511 2.45038,3.05569 3.76988,5.7438 0.89539,1.82417 2.16431,4.26017 2.82146,5.41645 0.97298,1.712 1.47496,2.89045 1.52222,3.89864 0.0473,1.00818 -0.35966,1.8481 -1.2041,2.87785 -0.53284,0.6498 -1.12577,1.12904 -1.89088,1.49102 -0.76512,0.36198 -1.70123,0.60695 -2.91958,0.78567 -0.6396,0.0939 -0.97305,0.13379 -1.28734,0.006 -0.3143,-0.12785 -0.60975,-0.42539 -1.17437,-1.00889 -0.63475,-0.65599 -1.15356,-1.28293 -1.15356,-1.3928 0,-0.11001 0.32946,-0.42646 0.73138,-0.70532 0.40192,-0.27876 0.72841,-0.69256 0.72841,-0.91961 0,-0.27804 -0.0258,-0.40992 -0.20812,-0.36605 -0.18237,0.0439 -0.52035,0.26295 -1.14167,0.69044 -0.58969,0.40571 -1.81219,1.05197 -2.7174,1.43744 -1.35045,0.57489 -2.02367,0.98843 -2.0217,1.15471 0.002,0.16628 0.67861,0.0861 2.03062,-0.32737 0.94272,-0.28829 1.41539,-0.43176 1.74817,-0.34522 0.33279,0.0865 0.5258,0.40313 0.9068,1.03568 l 0.66597,1.10709 -0.54408,0.40474 c -0.828,0.61415 -2.25536,1.02713 -4.80748,1.39279 -1.75516,0.2515 -3.56643,0.26649 -5.32777,0.0565 -1.76135,-0.20993 -3.47275,-0.64298 -5.02452,-1.28864 -0.98854,-0.4113 -1.72251,-0.80396 -2.39928,-1.3303 -0.67677,-0.52633 -1.29681,-1.18846 -2.06035,-2.13978 -0.71095,-0.8858 -1.39579,-1.61005 -1.52222,-1.61005 -0.43142,0 -0.232,0.75914 0.37758,1.43148 0.58276,0.64282 0.59193,0.69439 0.18433,1.22316 -0.64425,0.83577 -2.2189,1.81135 -3.7342,2.31539 -0.74678,0.24838 -1.56555,0.72324 -1.8225,1.05649 -0.46172,0.59886 -0.46085,0.6135 0.0803,1.12793 0.35182,0.3345 1.30907,0.5959 2.33982,0.72022 1.03075,0.12434 2.13416,0.11077 2.77389,-0.10423 0.50078,-0.1682 1.35257,-0.46003 1.89385,-0.64878 0.92464,-0.32236 1.79096,-0.26322 2.67876,0.22023 0.88779,0.48344 1.79702,1.38914 2.80659,2.76476 0.45305,0.61732 0.65384,1.11366 0.60057,1.47316 -0.0533,0.35948 -0.35955,0.58498 -0.91572,0.66365 -0.53431,0.0756 -0.64673,-0.0573 -0.83246,-0.97913 -0.11816,-0.58649 -0.36758,-1.12681 -0.55299,-1.19934 -0.26919,-0.10544 -0.30591,0.13577 -0.18136,1.20233 0.12652,1.08271 0.0809,1.36975 -0.24082,1.51481 -0.26213,0.1181 -0.55629,-0.0777 -0.86814,-0.58033 -0.29949,-0.48277 -0.5555,-0.73223 -0.71057,-0.74104 -0.15507,-0.009 -0.21087,0.22193 -0.11001,0.69342 0.0714,0.33409 0.0962,0.51191 -0.006,0.60713 -0.10214,0.0952 -0.33142,0.10711 -0.76111,0.10711 -0.50583,0 -1.30096,-0.13028 -1.76899,-0.29166 -1.31325,-0.45322 -3.60992,-0.41197 -8.52384,0.15774 -4.23987,0.49168 -4.63537,0.49525 -6.69242,0.0506 -1.22715,-0.26525 -2.03172,-0.52427 -2.61037,-0.91365 -0.57866,-0.38938 -0.93206,-0.90982 -1.26356,-1.69339 l -0.45786,-1.0803 0.88598,-3.19034 c 0.83377,-3.00701 1.11523,-5.05038 0.6957,-5.05038 -0.25688,0 -1.9848,6.03133 -2.16143,7.54432 l -0.14568,1.22911 -3.92745,0.80057 c -2.85331,0.5798 -5.43264,0.9021 -7.77759,0.97317 -2.34496,0.071 -4.45709,-0.10926 -6.37133,-0.54462 -2.52699,-0.57468 -5.28493,-1.66375 -4.29611,-1.69636 0.48697,-0.016 3.96737,-2.13853 5.90752,-3.60402 1.33329,-1.00707 2.7538,-2.8443 3.96015,-4.97895 1.20636,-2.13466 2.19875,-4.56899 2.67876,-6.77055 0.38978,-1.78781 0.48571,-3.50812 0.26757,-5.32716 -0.21813,-1.81904 -0.74956,-3.73705 -1.61438,-5.91046 -0.78791,-1.98017 -1.30666,-2.80683 -2.88687,-4.61291 -1.65177,-1.88782 -2.20426,-2.32707 -3.87096,-3.07428 -1.06882,-0.4792 -2.57397,-1.00753 -3.3477,-1.17554 -1.46714,-0.31843 -3.2679,-0.37329 -4.7391,-0.22916 -1.4712,0.14415 -2.61484,0.48681 -2.77092,0.96424 -0.14793,0.45245 0.42186,0.83166 0.8176,0.54462 0.13764,-0.0998 1.09602,-0.29233 2.13171,-0.42855 1.46541,-0.19294 3.25568,-0.0282 4.99478,0.40178 1.7391,0.42988 3.42625,1.12451 4.68559,1.99099 0.8622,0.59322 1.69327,1.47512 2.44388,2.53857 0.75061,1.06345 1.4213,2.30814 1.97115,3.62783 0.54986,1.31968 0.97687,2.71528 1.23681,4.07721 0.25993,1.36192 0.35402,2.69063 0.23487,3.88079 -0.1619,1.61737 -0.75048,3.69571 -1.56681,5.73785 -0.81633,2.04215 -1.86002,4.04815 -2.93444,5.52358 -0.8464,1.16233 -2.46307,2.5223 -4.23368,3.6814 -1.7706,1.1591 -3.69737,2.11718 -5.1702,2.47311 -1.14085,0.27574 -2.07224,0.59172 -2.07224,0.70234 0,0.28846 0.21436,0.545 0.60056,0.74998 0.38621,0.20497 0.94357,0.35741 1.63223,0.43451 1.14236,0.12784 1.92086,0.29858 2.46469,0.57734 0.54383,0.27879 0.85321,0.66623 1.05247,1.22615 0.18639,0.52417 0.33893,1.22532 0.33893,1.55647 0,0.47715 -0.18936,0.61682 -0.41623,0.49702 -0.22686,-0.11977 -0.49084,-0.4993 -0.64813,-1.05949 -0.15122,-0.53869 -0.42455,-1.037 -0.60651,-1.10709 -0.25978,-0.0998 -0.29529,0.1225 -0.16352,1.03864 0.0795,0.55242 0.11328,0.84644 0.0446,1.02972 -0.0687,0.18329 -0.23839,0.25615 -0.56489,0.36308 -0.3793,0.12403 -3.3225,0.20393 -6.53782,0.17559 -3.79509,-0.0328 -5.96638,-0.14643 -7.23352,-0.59522 -0.63357,-0.22442 -1.0414,-0.53189 -1.31113,-0.95531 -0.26973,-0.4234 -0.40293,-0.96302 -0.48759,-1.64874 -0.1846,-1.49508 -0.54292,-2.43665 -0.99301,-2.76179 -0.22504,-0.16257 -0.47356,-0.16988 -0.73435,-0.0178 -0.2608,0.15207 -0.53254,0.46502 -0.80868,0.94639 -1.1065,1.92894 -1.99843,2.94791 -3.72825,4.26173 -1.18324,0.89865 -2.15397,1.78882 -2.94336,2.70822 -0.78939,0.91941 -1.39629,1.86637 -1.85818,2.88381 -0.76946,1.69493 -1.21815,3.17891 -1.36762,4.69623 -0.14947,1.51733 3e-5,3.07062 0.42218,4.90158 0.40997,1.77826 0.85999,3.19769 1.43303,4.43732 0.57303,1.23962 1.26908,2.29869 2.17035,3.35699 1.43843,1.68906 2.49861,2.78873 3.77285,3.73498 1.27424,0.94623 2.76302,1.73702 5.05127,2.81534 2.099,0.98916 4.32461,1.84454 6.59431,2.5505 2.26971,0.70595 4.58116,1.26413 6.85297,1.65766 2.27181,0.39356 4.50387,0.62364 6.60918,0.67557 2.1053,0.052 4.08381,-0.0739 5.854,-0.39284 2.54732,-0.45884 6.83145,-2.10764 11.03611,-4.09209 4.20465,-1.98444 8.33225,-4.3063 10.5723,-6.10688 0.44151,-0.3552 0.63814,-0.43953 0.43704,-0.19047 -0.34652,0.42962 -5.75006,4.33978 -8.88359,6.4283 -1.4911,0.99383 -3.96559,2.23104 -6.49025,3.31236 -2.52465,1.08131 -5.0984,2.00534 -6.79053,2.3749 -1.77692,0.38819 -10.44899,0.73021 -12.66535,0.49999 -3.40252,-0.35342 -7.49701,-1.42803 -11.34233,-2.87191 -1.92266,-0.72194 -3.78392,-1.53661 -5.46454,-2.39872 -1.68061,-0.8621 -3.1819,-1.77045 -4.3853,-2.68441 -1.64822,-1.25182 -2.88038,-2.44461 -3.94529,-3.9284 -1.06491,-1.48381 -1.96377,-3.2586 -2.94633,-5.67239 -0.53112,-1.3047 -0.93143,-2.6259 -1.2041,-3.94328 -0.27267,-1.31739 -0.41731,-2.63078 -0.4311,-3.91947 -0.0138,-1.28871 0.10231,-2.55202 0.34785,-3.77068 0.24555,-1.21867 0.62149,-2.39258 1.1268,-3.49986 0.89957,-1.97113 2.06938,-3.49971 4.12665,-5.38668 1.54061,-1.41313 2.57885,-2.55982 3.22877,-3.63674 0.64993,-1.07694 0.91289,-2.08469 0.90977,-3.21713 -0.004,-1.20963 -0.75039,-4.91347 -1.30221,-6.46402 -0.40055,-1.12543 -0.69954,-2.53798 -0.88301,-4.13078 -0.18347,-1.59279 -0.25113,-3.3655 -0.19325,-5.21406 0.10221,-3.26222 0.2031,-3.88923 1.14166,-7.15149 0.56566,-1.96608 1.34859,-4.19166 1.74223,-4.9492 0.39364,-0.7576 0.71652,-1.43725 0.71652,-1.50886 0,-0.22287 1.2867,-2.48794 2.17927,-3.83615 1.56295,-2.36091 3.66872,-4.64741 5.93428,-6.5414 2.26557,-1.89398 4.69143,-3.39433 6.89757,-4.18434 2.48706,-0.89068 4.56479,-1.44876 6.70134,-1.73506 2.13654,-0.28628 4.33186,-0.30036 7.04919,-0.10712 z m 44.01062,6.16939 c 0.78184,-0.12404 1.6474,-0.0731 2.75605,0.12494 1.09199,0.19518 2.14499,0.56542 3.13066,1.08627 0.98568,0.52086 1.90595,1.19254 2.73227,1.98801 0.82633,0.79547 1.55939,1.713 2.17333,2.73203 0.61394,1.01904 1.1083,2.13869 1.45681,3.33022 0.36129,1.2348 0.58191,2.81348 0.66003,4.71706 0.0656,1.57388 0.0763,3.06817 0.0268,3.3213 -0.0682,0.34781 -0.49417,0.0614 -1.74521,-1.1815 -1.4129,-1.40378 -2.8498,-2.47615 -4.27827,-3.1963 -1.42847,-0.72015 -2.84725,-1.08923 -4.21881,-1.08923 -1.03544,-2e-5 -1.41816,-0.10438 -1.41816,-0.38987 0,-1.0276 -1.8264,-4.52129 -3.43987,-6.57711 -1.00444,-1.2798 -1.50826,-1.95516 -1.51924,-2.46716 -0.011,-0.51199 0.46937,-0.86133 1.43303,-1.48209 0.77016,-0.49604 1.46879,-0.79262 2.25062,-0.91662 z m 8.70223,22.12704 c 0.62197,0 1.34379,0.13531 1.60249,0.29762 0.41854,0.26298 0.7777,0.85553 1.03464,1.63385 0.25693,0.77833 0.41028,1.74205 0.41028,2.74692 0,0.97513 -0.0316,1.51163 -0.19919,1.78266 -0.16762,0.27102 -0.47231,0.27432 -1.01977,0.18451 -0.90461,-0.14842 -1.70128,-0.44642 -2.36064,-0.84818 -0.65935,-0.40175 -1.17889,-0.9057 -1.52816,-1.45827 -0.34927,-0.55257 -0.52812,-1.15508 -0.50246,-1.75587 0.0257,-0.6008 0.25405,-1.20052 0.71949,-1.74696 0.58248,-0.68383 0.91815,-0.83628 1.84332,-0.83628 z M 100.351,285.06046 c 0.13395,-9.3e-4 0.0792,0.1286 -0.1219,0.28867 v 0.003 c -0.84494,0.67314 -1.32669,0.86629 -0.73138,0.29463 0.33494,-0.32171 0.7193,-0.58629 0.85327,-0.58629 z"
     id="path6081"
     inkscape:export-filename="C:\Users\DanielValentin-Dev\git\BPMLab\BPMLab\Processing\BPMProcessingApp\data\rearingDown.png"
     inkscape:export-xdpi="300"
     inkscape:export-ydpi="300" />
  <path
     inkscape:connector-curvature="0"
     style="opacity:0.67000002;fill:#ffff00;fill-opacity:1;stroke:#ffffff;stroke-width:1.37220776;stroke-miterlimit:4;stroke-dasharray:none;stroke-dashoffset:0;stroke-opacity:0.67058824"
     d="m 100.351,285.06046 c -0.13397,0 -0.51834,0.26458 -0.85328,0.58629 -0.59531,0.57166 -0.11356,0.37851 0.73138,-0.29463 v -0.003 c 0.20111,-0.16015 0.25586,-0.28961 0.1219,-0.28868 z"
     id="path6103"
     inkscape:export-filename="C:\Users\DanielValentin-Dev\git\BPMLab\BPMLab\Processing\BPMProcessingApp\data\rearingDown.png"
     inkscape:export-xdpi="300"
     inkscape:export-ydpi="300" />
  <path
     inkscape:connector-curvature="0"
     style="opacity:1;fill:#ffffff;fill-opacity:1;stroke:#ffffff;stroke-width:1.37220776;stroke-miterlimit:4;stroke-dasharray:none;stroke-dashoffset:0;stroke-opacity:0"
     d="m 104.20412,255.61229 -0.7076,0.87198 c -0.75753,0.93326 -1.627,1.45726 -3.73717,2.25288 l -1.32302,0.497 1.82845,0.20237 c 1.52386,0.16771 2.06954,0.10316 3.26445,-0.38986 1.37038,-0.56546 2.43026,-0.71455 3.45175,-0.35117 1.0215,0.36337 2.00438,1.23863 3.2258,2.72608 0.49239,0.59961 0.95472,1.00981 1.34681,1.20828 0.39209,0.19845 0.71312,0.1853 0.92166,-0.0596 0.0816,-0.0955 0.0238,-0.41183 -0.13082,-0.70234 -0.20753,-0.39015 -0.21302,-0.64605 -0.0862,-0.72318 0.1268,-0.0771 0.38332,0.0265 0.69868,0.35118 0.30145,0.31057 0.71405,0.45672 1.0495,0.44641 0.33544,-0.0107 0.59461,-0.17711 0.59461,-0.49702 0,-0.31563 -0.25108,-0.63013 -0.69867,-0.90472 -0.44759,-0.27458 -1.08984,-0.51187 -1.87602,-0.67854 -1.71042,-0.36261 -3.05172,-0.77336 -4.15638,-1.29756 -1.10466,-0.5242 -1.97503,-1.16052 -2.74118,-1.97313 z"
     id="path6101"
     inkscape:export-filename="C:\Users\DanielValentin-Dev\git\BPMLab\BPMLab\Processing\BPMProcessingApp\data\rearingDown.png"
     inkscape:export-xdpi="300"
     inkscape:export-ydpi="300" />
  <path
     inkscape:connector-curvature="0"
     style="opacity:1;fill:#ffffff;fill-opacity:0;stroke:#ffffff;stroke-width:1.37220776;stroke-miterlimit:4;stroke-dasharray:none;stroke-dashoffset:0;stroke-opacity:0"
     d="m 104.20412,255.61229 0.92463,0.97913 c 0.76615,0.81261 1.63653,1.44893 2.74119,1.97312 1.10466,0.5242 2.44595,0.93496 4.15637,1.29757 0.78618,0.16666 1.42843,0.40396 1.87602,0.67853 0.4476,0.2746 0.69868,0.5891 0.69868,0.90473 0,0.31991 -0.25917,0.4867 -0.59462,0.49701 -0.33545,0.0107 -0.74805,-0.13576 -1.0495,-0.44641 -0.31536,-0.32471 -0.57187,-0.42832 -0.69868,-0.35118 -0.1268,0.0771 -0.12132,0.33303 0.0862,0.72319 0.15468,0.2905 0.2124,0.6068 0.13082,0.70234 -0.20854,0.24483 -0.52956,0.25798 -0.92165,0.0596 -0.3921,-0.19847 -0.85443,-0.60868 -1.34681,-1.20829 -1.22143,-1.48745 -2.20431,-2.3627 -3.2258,-2.72607 -1.0215,-0.36338 -2.08138,-0.2143 -3.45176,0.35116 -1.19491,0.49297 -1.74059,0.55757 -3.26445,0.38987 l -1.82845,-0.20237 1.32303,-0.497 c 2.11016,-0.79562 2.97963,-1.31962 3.73717,-2.25289 z"
     id="path6099"
     inkscape:export-filename="C:\Users\DanielValentin-Dev\git\BPMLab\BPMLab\Processing\BPMProcessingApp\data\rearingDown.png"
     inkscape:export-xdpi="300"
     inkscape:export-ydpi="300" />
  <path
     inkscape:connector-curvature="0"
     style="opacity:0.67000002;fill:#ffff00;fill-opacity:1;stroke:#ffffff;stroke-width:1.37220776;stroke-miterlimit:4;stroke-dasharray:none;stroke-dashoffset:0;stroke-opacity:0.67058824"
     d="m 135.46019,249.67503 c -0.0998,-0.11718 -0.28257,-0.0244 -0.40731,0.20832 -0.18752,0.34813 -0.25329,0.59961 -0.21704,0.69939 0.0362,0.0998 0.17534,0.0471 0.39542,-0.2113 0.22652,-0.266 0.32876,-0.57925 0.22893,-0.69641 z"
     id="path6097"
     inkscape:export-filename="C:\Users\DanielValentin-Dev\git\BPMLab\BPMLab\Processing\BPMProcessingApp\data\rearingDown.png"
     inkscape:export-xdpi="300"
     inkscape:export-ydpi="300" />
  <path
     inkscape:connector-curvature="0"
     style="opacity:1;fill:#ffffff;fill-opacity:1;stroke:#ffffff;stroke-width:1.37220776;stroke-miterlimit:4;stroke-dasharray:none;stroke-dashoffset:0;stroke-opacity:0.67058824"
     d="m 135.46019,249.67503 c 0.0998,0.11717 -0.002,0.43041 -0.22893,0.69641 -0.22008,0.25841 -0.35917,0.31107 -0.39542,0.2113 -0.0362,-0.0998 0.0295,-0.35126 0.21704,-0.69939 0.12474,-0.23272 0.30754,-0.3255 0.40731,-0.20832 z"
     id="path6095"
     inkscape:export-filename="C:\Users\DanielValentin-Dev\git\BPMLab\BPMLab\Processing\BPMProcessingApp\data\rearingDown.png"
     inkscape:export-xdpi="300"
     inkscape:export-ydpi="300" />
  <path
     inkscape:connector-curvature="0"
     style="opacity:0.67000002;fill:#ffff00;fill-opacity:1;stroke:#ffffff;stroke-width:1.37220776;stroke-miterlimit:4;stroke-dasharray:none;stroke-dashoffset:0;stroke-opacity:0.67058824"
     d="m 123.2735,243.94611 c -0.24753,-0.29081 -0.45288,0.14689 -0.24974,0.53272 0.15342,0.29143 0.21183,0.29359 0.29434,0.003 0.0565,-0.19878 0.0363,-0.44063 -0.0446,-0.53568 z"
     id="path6093"
     inkscape:export-filename="C:\Users\DanielValentin-Dev\git\BPMLab\BPMLab\Processing\BPMProcessingApp\data\rearingDown.png"
     inkscape:export-xdpi="300"
     inkscape:export-ydpi="300" />
  <path
     inkscape:connector-curvature="0"
     style="opacity:0.67000002;fill:#ffff00;fill-opacity:1;stroke:#ffffff;stroke-width:1.37220776;stroke-miterlimit:4;stroke-dasharray:none;stroke-dashoffset:0;stroke-opacity:0.67058824"
     d="m 123.2735,243.94611 c 0.081,0.0951 0.10108,0.3369 0.0446,0.53569 -0.0825,0.29062 -0.14093,0.28846 -0.29434,-0.003 -0.20314,-0.38587 0.002,-0.82352 0.24974,-0.53272 z"
     id="path6091"
     inkscape:export-filename="C:\Users\DanielValentin-Dev\git\BPMLab\BPMLab\Processing\BPMProcessingApp\data\rearingDown.png"
     inkscape:export-xdpi="300"
     inkscape:export-ydpi="300" />
  <path
     inkscape:connector-curvature="0"
     style="opacity:0.67000002;fill:#ffff00;fill-opacity:1;stroke:#ffffff;stroke-width:1.37220776;stroke-miterlimit:4;stroke-dasharray:none;stroke-dashoffset:0;stroke-opacity:0.67058824"
     d="m 122.02183,241.29741 c -0.48236,0 -1.07777,0.12663 -1.32599,0.28272 -0.29361,0.18449 -0.50828,0.63316 -0.60057,1.13686 -0.0923,0.50371 -0.0634,1.06067 0.1219,1.4672 0.14448,0.31688 0.21749,0.47782 0.29137,0.45236 0.0739,-0.0254 0.14755,-0.23646 0.2973,-0.65472 0.16503,-0.46098 0.7051,-1.25357 1.19816,-1.76184 l 0.8949,-0.92258 z"
     id="path6089"
     inkscape:export-filename="C:\Users\DanielValentin-Dev\git\BPMLab\BPMLab\Processing\BPMProcessingApp\data\rearingDown.png"
     inkscape:export-xdpi="300"
     inkscape:export-ydpi="300" />
  <path
     inkscape:connector-curvature="0"
     style="opacity:1;fill:#000000;fill-opacity:1;stroke:#ffffff;stroke-width:1.37220776;stroke-miterlimit:4;stroke-dasharray:none;stroke-dashoffset:0;stroke-opacity:0"
     d="m 121.78399,240.43732 c -0.92517,0 -1.26084,0.15245 -1.84332,0.83628 -0.46544,0.54644 -0.69382,1.14616 -0.71949,1.74696 -0.0257,0.60079 0.15319,1.2033 0.50246,1.75587 0.34927,0.55257 0.86881,1.05652 1.52816,1.45827 0.65936,0.40176 1.45603,0.69982 2.36064,0.84818 0.54746,0.0898 0.85215,0.0865 1.01977,-0.18451 0.16761,-0.27103 0.19919,-0.80753 0.19919,-1.78266 0,-1.00487 -0.15335,-1.96859 -0.41028,-2.74692 -0.25694,-0.77832 -0.6161,-1.37087 -1.03464,-1.63385 -0.2587,-0.16234 -0.98052,-0.29762 -1.60249,-0.29762 z m 0.23784,0.86009 h 0.87706 l -0.8949,0.92258 c -0.49306,0.50827 -1.03312,1.30086 -1.19815,1.76184 -0.14975,0.41826 -0.22343,0.62927 -0.29731,0.65472 -0.0739,0.0254 -0.14689,-0.13546 -0.29136,-0.45236 -0.18532,-0.40653 -0.21418,-0.96349 -0.1219,-1.4672 0.0923,-0.5037 0.30696,-0.95237 0.60056,-1.13686 0.24823,-0.15605 0.84364,-0.28272 1.326,-0.28272 z"
     id="path6087"
     inkscape:export-filename="C:\Users\DanielValentin-Dev\git\BPMLab\BPMLab\Processing\BPMProcessingApp\data\rearingDown.png"
     inkscape:export-xdpi="300"
     inkscape:export-ydpi="300" />
  <g
     id="g904"
     inkscape:export-filename="C:\Users\DanielValentin-Dev\git\BPMLab\BPMLab\Processing\BPMProcessingApp\data\rearingUp.png"
     inkscape:export-xdpi="95.29808"
     inkscape:export-ydpi="95.29808"
     transform="translate(45.5,-53)">
    <path
       style="opacity:1;fill:#f3efba;fill-opacity:0.67058824;stroke:#ffffff;stroke-width:6.29400015;stroke-miterlimit:4;stroke-dasharray:none;stroke-dashoffset:0;stroke-opacity:1"
       d="m 172.52942,234.27303 129.16538,0.26477 36.26207,71.95035 -138.47104,0.35917 z"
       id="path1080"
       inkscape:connector-curvature="0"
       sodipodi:nodetypes="ccccc" />
    <path
       inkscape:connector-curvature="0"
       id="path5335"
       d="m 257.14771,291.07102 c 1.24982,-0.35322 2.17731,-2.3362 1.6418,-3.51006 -0.27421,-0.60074 -0.34441,-1.09482 -0.15635,-1.09801 0.18816,-0.003 0.0121,-0.18452 -0.39306,-0.40301 -1.12169,-0.6061 -0.0927,-0.28209 3.67581,1.15776 3.23758,1.23686 3.69628,1.30891 8.14473,1.27812 5.64904,-0.0391 8.00565,-0.83478 8.38948,-2.83295 0.26542,-1.38065 -1.64213,-3.30484 -4.02269,-4.05829 l -1.46117,-0.46246 1.21385,-1.58269 c 1.61897,-2.11083 1.61343,-4.59028 -0.0182,-7.2651 -0.67124,-1.10184 -1.22048,-2.15871 -1.22048,-2.34866 0,-0.18997 0.58653,-1.02253 1.30335,-1.85025 2.02815,-2.34174 1.88956,-5.00087 -0.45191,-8.66993 -1.0074,-1.5786 -1.83169,-3.39725 -1.83169,-4.04138 0,-1.27755 0.75088,-2.61993 1.4654,-2.61993 0.39456,0 0.60111,0.52793 1.17204,2.99593 0.23967,1.03549 1.66728,3.27606 2.26848,3.55997 1.04732,0.49457 1.43073,-0.65178 0.67818,-2.02798 -0.39582,-0.72384 -0.84904,-2.26165 -1.00711,-3.41726 l -0.28755,-2.10114 2.06093,-1.1581 c 1.13353,-0.63695 2.83351,-1.84774 3.77772,-2.69064 0.94425,-0.8429 1.92431,-1.43456 2.17792,-1.31478 0.2536,0.11968 0.40115,0.0788 0.3279,-0.0912 -0.0733,-0.16967 0.897,-1.49175 2.15612,-2.93769 3.26648,-3.75123 4.26448,-5.89694 4.16307,-8.95041 -0.0776,-2.33727 -0.2024,-2.60714 -1.66552,-3.60577 -0.86986,-0.59369 -2.80253,-1.3506 -4.29478,-1.68207 -1.49224,-0.33151 -2.58862,-0.75673 -2.43636,-0.94495 0.1524,-0.18815 -0.0121,-0.25966 -0.36127,-0.15877 -0.35095,0.10085 -1.74084,-0.49054 -3.08865,-1.31417 -2.88364,-1.76214 -8.82021,-4.12061 -10.37212,-4.12061 -1.57774,0 -1.67866,-0.36662 -0.78114,-2.83674 1.14888,-3.1621 1.11989,-10.46653 -0.0534,-13.45378 -1.60628,-4.0895 -4.8168,-5.47978 -7.44651,-3.22463 -2.58274,2.21491 -5.2881,7.57676 -5.89667,11.6868 l -0.32614,2.20249 -1.89719,-1.49378 c -2.19649,-1.72937 -3.12573,-1.92283 -2.67719,-0.55727 0.16907,0.51506 0.42401,1.73688 0.56627,2.7151 l 0.25875,1.77859 -1.27799,-1.80935 c -3.02791,-4.28678 -10.9529,-8.85497 -17.33106,-9.99008 -4.24889,-0.75617 -11.18707,-0.32314 -14.46655,0.90283 -11.38854,4.25754 -14.85551,14.99504 -7.49869,23.22415 1.11992,1.25278 1.96685,2.44627 1.88198,2.65228 -0.0849,0.20604 0.003,0.25391 0.19696,0.10605 0.42415,-0.32412 4.69305,1.9491 4.38215,2.33353 -0.11998,0.14846 0.16241,0.25754 0.62816,0.24239 0.46565,-0.0152 2.10845,0.28905 3.65067,0.67625 3.3602,0.84335 4.70234,0.53631 5.92167,-1.35465 l 0.80912,-1.25476 0.0122,1.36429 c 0.006,0.84502 0.2839,1.44419 0.72745,1.57433 0.97246,0.28511 5.49633,-0.31778 7.67382,-1.0227 l 1.7736,-0.57417 -0.68834,1.57611 c -0.37856,0.86683 -0.81829,1.82887 -0.97718,2.13783 -1.11687,2.17177 1.11725,7.71235 3.43521,8.51935 1.05226,0.36631 1.12662,0.55702 0.81978,2.10207 -0.35029,1.76358 -2.06163,4.05696 -4.33098,5.80399 -2.51149,1.93345 -6.44118,4.22569 -6.88504,4.01611 -0.24542,-0.11574 -0.41604,0 -0.37907,0.25573 0.037,0.25632 -0.82918,1.08859 -1.92477,1.84916 l -1.99193,1.38286 -2.48746,-0.88059 c -3.98959,-1.41234 -8.09767,-4.64152 -8.63945,-6.79108 -0.099,-0.39376 -0.31808,-0.96872 -0.4863,-1.27766 -0.73564,-1.35113 -1.32584,-4.39618 -1.78833,-9.22686 -0.61635,-6.43727 -0.8259,-7.53171 -2.06948,-10.80862 -1.12312,-2.95945 -2.28941,-4.85249 -4.49916,-7.30267 -0.83593,-0.92685 -1.52252,-1.85375 -1.52582,-2.05972 -0.003,-0.20603 -0.33674,-0.37826 -0.74109,-0.38292 -0.45127,-0.006 -0.67995,-0.29451 -0.59217,-0.74897 0.11483,-0.59393 0.0479,-0.63225 -0.33769,-0.19392 -0.41779,0.47534 -0.59665,0.46831 -1.36822,-0.0543 -1.00988,-0.68374 -8.3943,-4.04917 -8.89246,-4.05269 -0.17997,0 -0.95655,-0.25299 -1.72587,-0.55978 -2.87474,-1.14558 -2.15171,-0.0494 1.9001,2.88147 3.35983,2.43009 4.12273,3.17849 3.88998,3.81587 -0.21635,0.59244 -0.16817,0.65843 0.19057,0.26117 0.65505,-0.72554 3.00973,2.13574 5.04736,6.13316 1.45194,2.84844 1.53684,3.29675 1.56338,8.25496 0.0152,2.88361 -0.0684,8.19208 -0.18634,11.7966 -0.21421,6.55251 -0.21391,6.55408 1.18528,8.98787 2.8149,4.89622 7.20066,8.93833 12.75486,11.75529 2.11322,1.0718 2.74463,1.60713 2.74463,2.32689 0,1.97851 3.50648,5.74584 7.11243,7.64155 1.1821,0.62147 4.19348,1.64041 6.6919,2.26421 2.49842,0.62382 4.88068,1.35734 5.29389,1.63004 0.41323,0.27269 2.50361,1.15041 4.64529,1.95054 3.72975,1.39347 4.11212,1.45686 9.06704,1.50345 2.84522,0.0272 5.45342,-0.0309 5.79604,-0.12755 z m -6.2592,-2.0932 c 0,-0.95924 -0.83302,-1.76012 -1.83065,-1.76012 -0.49509,0 -0.5309,0.17605 -0.14725,0.72434 0.95711,1.36647 0.64652,1.63534 -1.5756,1.36387 -1.63953,-0.20029 -6.26136,-1.82657 -6.24566,-2.19765 0.002,-0.043 1.16704,-0.10817 2.58935,-0.14543 1.42231,-0.0369 3.57119,-0.34371 4.77529,-0.68138 3.9447,-1.10607 4.75408,-1.06119 6.62346,0.36714 0.9307,0.71116 1.69218,1.55142 1.69218,1.86726 0,0.91579 -0.84443,0.66401 -1.17794,-0.35123 -0.16725,-0.50897 -0.74246,-1.10472 -1.27842,-1.3239 -1.13047,-0.46231 -1.30015,-0.009 -0.40695,1.08136 0.86426,1.05741 0.17725,1.91697 -1.53229,1.91697 -1.22359,0 -1.48573,-0.1518 -1.48573,-0.86132 z m 20.09456,-2.6311 c 0,-1.16685 -2.24744,-2.8045 -3.02911,-2.20724 -0.42735,0.32657 -0.36587,0.4907 0.25148,0.67179 0.513,0.15029 0.81711,0.66022 0.81711,1.36977 0,1.04242 -0.10847,1.11368 -1.39425,0.91717 -0.76678,-0.11726 -2.69663,-0.66277 -4.28844,-1.21246 l -2.89425,-0.99937 2.9952,-0.48545 c 1.64735,-0.26693 3.91316,-0.84329 5.03509,-1.28066 1.74251,-0.67922 2.3205,-0.73745 3.96423,-0.39926 2.01724,0.41504 4.27248,2.2774 3.66595,3.02724 -0.19756,0.24421 -0.69909,-0.0552 -1.24906,-0.74645 -1.23266,-1.54878 -1.91765,-1.46406 -1.5656,0.19361 0.19938,0.93916 0.0785,1.4487 -0.3984,1.67949 -1.18598,0.57381 -1.91001,0.37356 -1.91001,-0.52818 z m -39.7842,-2.46691 c -4.02505,-1.17831 -7.44418,-3.40222 -9.02392,-5.8694 -1.14846,-1.79362 -1.27903,-2.34826 -1.01206,-4.29977 0.16877,-1.2323 0.66825,-2.78403 1.11046,-3.44824 1.31188,-1.97062 4.54705,-4.79175 8.47109,-7.38689 9.34816,-6.18245 10.67048,-7.47835 10.92181,-10.70353 l 0.14847,-1.90288 2.94412,0.91446 c 3.29975,1.0249 5.15864,1.36274 5.13128,0.93255 -0.0122,-0.15847 -2.23218,-1.38362 -4.938,-2.72239 -5.59398,-2.7679 -6.80635,-4.02563 -6.80635,-7.06108 0,-2.38103 1.73746,-6.67188 3.26227,-8.05655 1.54687,-1.40471 1.14547,-1.65116 -1.02206,-0.62759 -0.9527,0.44992 -1.99084,0.69592 -2.30699,0.5466 -0.33635,-0.15877 -0.44431,-0.10999 -0.26027,0.11756 0.33917,0.41929 -0.95697,0.89813 -4.81914,1.78039 -4.06504,0.92861 -3.94191,1.0226 -3.76123,-2.8711 0.14634,-3.15529 0.0931,-3.39835 -0.64495,-2.93047 -0.44255,0.28058 -1.13028,0.99149 -1.52835,1.57963 -0.39805,0.58817 -0.91963,0.97688 -1.15911,0.86378 -0.23936,-0.11302 -0.59496,-0.009 -0.78999,0.23269 -0.22149,0.27391 -0.1421,0.33817 0.21118,0.1712 0.31121,-0.14696 0.56581,-0.0934 0.56581,0.11937 0,0.58612 -2.10758,3.77709 -2.49465,3.77709 -0.94647,0 -4.3126,-1.41862 -3.99715,-1.68453 0.20088,-0.16937 0.0882,-0.18634 -0.25058,-0.0373 -1.45031,0.63799 -6.6766,-3.21409 -8.75668,-6.45414 -1.1218,-1.74736 -1.39744,-2.74396 -1.55826,-5.63386 -0.24512,-4.40627 0.95658,-7.13617 4.31443,-9.80055 1.82106,-1.44494 5.89434,-3.49523 6.86158,-3.45376 0.13484,0.006 0.79643,-0.1524 1.47034,-0.35176 1.86644,-0.55192 6.3707,-0.17181 8.82907,0.7453 1.81256,0.67609 5.87188,3.11243 5.87515,3.5262 4.9e-4,0.0618 -1.29826,0.0566 -2.88612,-0.0121 -1.97752,-0.0855 -3.37198,0.0669 -4.42631,0.48342 -0.84659,0.33454 -1.78742,0.49103 -2.09072,0.34777 -0.31075,-0.14664 -0.41645,-0.0937 -0.24209,0.12181 0.16998,0.21028 -0.15846,0.69973 -0.73018,1.08772 -1.25385,0.85092 -3.35953,4.33325 -3.32022,5.49092 0.0212,0.58011 0.36767,0.26513 1.14958,-1.04054 1.65519,-2.76384 3.59014,-4.14734 6.79662,-4.85958 3.255,-0.72306 6.21982,-0.31636 7.44612,1.02145 1.0419,1.13665 0.94136,3.49739 -0.26088,6.1201 -1.65256,3.60562 -0.48963,6.83519 2.95073,8.1946 2.05822,0.81326 2.17043,0.25785 0.27208,-1.34768 -2.35653,-1.99309 -2.53632,-2.91765 -1.30435,-6.70806 1.29766,-3.99257 1.30712,-4.71588 0.0937,-7.15618 -0.52917,-1.06411 -0.8259,-2.10304 -0.65946,-2.30886 0.16635,-0.20574 0.0839,-0.27088 -0.18362,-0.14454 -0.26753,0.12635 -1.3491,-0.4547 -2.40376,-1.29108 l -1.91752,-1.52069 1.71743,0.69361 c 7.7125,3.1147 13.15965,8.61879 13.25376,13.39229 0.0213,1.11953 0.0648,1.09602 1.30602,-0.71484 0.8791,-1.28282 1.29639,-2.49183 1.32502,-3.83902 0.0354,-1.66547 0.13544,-1.86947 0.65438,-1.33274 0.72645,0.75139 0.81556,4.90242 0.13483,6.27083 -0.263,0.52836 -0.3912,0.96064 -0.28512,0.96064 0.10605,0 1.35562,-0.75836 2.77672,-1.68522 4.34946,-2.83683 4.10734,-1.74633 -0.29784,1.34181 -1.76627,1.23818 -1.4028,1.74978 0.66319,0.93346 0.81939,-0.32378 1.8875,-0.63599 2.37358,-0.69382 0.48607,-0.0579 1.15629,-0.23513 1.48934,-0.39393 1.26879,-0.60514 5.902,-0.93943 8.02577,-0.57914 2.22012,0.37669 6.75668,2.33535 10.88233,4.69854 1.29784,0.7434 3.1234,1.55224 4.05681,1.79742 l 1.69703,0.4458 -0.99361,0.96518 c -0.54647,0.53087 -0.9936,1.22127 -0.9936,1.53426 0,0.73265 2.05241,1.96301 4.16182,2.49494 1.59674,0.40265 1.63259,0.45473 1.1102,1.6129 -1.1272,2.49914 -3.66237,5.37367 -7.43881,8.43469 -1.97319,1.59937 -4.70194,3.12246 -3.3512,1.87052 0.33463,-0.31017 0.49067,-0.65386 0.34681,-0.76379 -0.14393,-0.10967 0.10725,-1.32229 0.55838,-2.69412 0.45097,-1.37186 0.69555,-2.58929 0.54347,-2.70548 -0.91685,-0.70058 -3.02917,2.23384 -3.54752,4.92821 -0.55773,2.89919 -0.99758,3.45513 -3.51427,4.44164 -1.29081,0.50603 -2.78806,1.19667 -3.32717,1.53484 -0.93791,0.58829 -0.89949,0.60481 0.89007,0.38277 1.75322,-0.21754 1.83763,-0.18543 1.34781,0.51387 -0.93261,1.33157 -0.55724,3.12947 1.19292,5.71358 1.3937,2.05784 1.71245,2.94028 1.69978,4.70554 -0.0152,1.99194 -0.0754,2.11225 -0.73515,1.44577 -0.42264,-0.42698 -0.71957,-0.5276 -0.71957,-0.24392 0,0.78602 -1.54008,3.03051 -2.07945,3.03051 -0.31393,0 -0.37947,-0.72533 -0.17786,-1.96606 0.20665,-1.27048 0.15726,-1.77812 -0.13967,-1.43476 -0.33275,0.38507 -0.55639,0.036 -0.81236,-1.26813 -0.29966,-1.52692 -0.43206,-1.69251 -0.87395,-1.0931 -0.57635,0.78167 -0.98749,8.07525 -0.41531,7.36789 0.23573,-0.29149 0.60516,-0.32348 1.08038,-0.0937 0.39722,0.19209 1.18871,0.35159 1.75884,0.35477 0.83357,0.006 1.24157,0.46937 2.08299,2.37274 1.18546,2.68158 1.28739,3.69443 0.48978,4.86664 -1.06574,1.5663 -4.10421,3.22458 -6.87209,3.75057 -0.71627,0.13605 -1.70872,0.35821 -2.20548,0.49355 -0.49682,0.13543 0.14422,-0.56905 1.42476,-1.56535 1.28045,-0.99634 2.32804,-2.06263 2.32804,-2.36953 0,-0.43694 -0.23935,-0.3949 -1.10276,0.19391 -0.60651,0.41353 -1.6066,1.09285 -2.22243,1.50952 -0.98433,0.66607 -8.0195,3.4866 -8.69654,3.4866 -0.14089,0 0.13544,-0.54769 0.61405,-1.21709 1.06554,-1.49021 1.22167,-7.81959 0.22634,-9.17766 -0.5449,-0.74355 -0.3519,-0.70107 1.60538,0.3531 1.86785,1.006 2.4329,1.14159 3.52225,0.84511 2.16174,-0.58829 3.28869,-2.13776 3.51309,-4.83023 0.24088,-2.89345 -0.6032,-5.0271 -3.21536,-8.12545 -1.74058,-2.06456 -2.57593,-2.65473 -2.57593,-1.81984 0,0.20362 0.77191,1.795 1.7154,3.53651 0.94346,1.74154 1.69794,3.63934 1.67667,4.21745 -0.0213,0.57808 -0.14998,0.84041 -0.28603,0.58293 -0.37052,-0.70164 -0.99844,-0.56445 -1.28793,0.28148 -0.14089,0.41219 -0.0797,0.66595 0.13635,0.56387 0.21603,-0.10211 0.52642,0.08 0.68943,0.40458 0.46413,0.92416 0.34753,2.70764 -0.19391,2.96319 -0.43441,0.20513 -0.68726,-0.59169 -0.62269,-1.96206 0.0122,-0.25513 -0.17361,-0.37169 -0.41289,-0.25876 -0.23905,0.11301 -0.43476,0.0591 -0.43476,-0.11968 0,-0.17877 -0.30542,-0.64413 -0.67867,-1.03421 -0.63723,-0.66586 -0.67004,-0.64916 -0.53748,0.2736 0.0776,0.54057 0.29602,1.52154 0.4853,2.17998 0.22876,0.79584 0.16634,1.15092 -0.18603,1.0592 -0.74228,-0.19331 -7.90525,-5.61798 -7.90525,-5.98686 0,-0.16605 -0.46685,-1.25567 -1.03744,-2.42098 -0.73931,-1.50979 -1.15975,-1.97127 -1.46286,-1.60565 -1.15519,1.39339 0.43435,4.85997 3.2403,7.06676 2.72755,2.14507 4.03121,7.83137 2.45597,10.71208 -0.39868,0.72912 -0.94755,1.22052 -1.21964,1.09198 -0.27208,-0.12846 -0.39325,-0.0122 -0.26936,0.25392 0.28754,0.62105 -0.62777,1.53221 -2.19733,2.18776 -3.94846,1.6491 -14.19126,1.85834 -19.19952,0.39219 z m 32.61326,-26.71535 c 0.38142,-0.4634 0.97795,-1.46561 1.3256,-2.22703 0.34768,-0.76142 0.84672,-1.28309 1.10899,-1.15925 0.26814,0.12665 0.31962,0.0309 0.11785,-0.21876 -0.66606,-0.82345 5.76185,-8.39946 9.22978,-10.87833 1.49197,-1.06645 1.60862,-1.5263 0.38717,-1.5263 -1.12456,0 -5.02935,2.89191 -7.8331,5.80138 -2.76851,2.87283 -5.57322,7.37994 -5.87795,9.44562 -0.26481,1.79563 0.4149,2.1319 1.54175,0.76267 z m 0.0645,-14.84721 c 3.03018,-1.01654 4.17418,-4.90773 2.17095,-7.38433 -1.61387,-1.99534 -3.24584,-2.65007 -5.96166,-2.39177 -4.1454,0.39422 -6.47912,3.32808 -5.30268,6.66639 0.75972,2.15583 2.45597,3.17219 5.53634,3.31724 1.41726,0.0666 3.01794,-0.0272 3.55705,-0.20756 z m -6.03641,-2.38276 c -0.10574,-0.69992 0.07,-1.02664 0.55263,-1.02664 1.01291,0 1.97,1.00964 1.61922,1.7081 -0.47717,0.95015 -1.99745,0.47315 -2.17185,-0.68146 z m 3.15194,-1.44974 c -1.30777,-0.45527 -2.45203,-2.11122 -2.18255,-3.15849 0.45896,-1.78363 3.80899,-1.58562 5.32547,0.31478 1.19428,1.49663 1.19374,1.59542 -0.0152,2.51781 -1.13362,0.86617 -1.47543,0.90177 -3.12953,0.3259 z m -48.9272,30.23577 c -4.18524,-3.30677 -6.62424,-6.79019 -7.52998,-10.75456 -0.58732,-2.57058 -0.58111,-3.7382 0.0452,-8.49143 0.39931,-3.03106 0.725,-6.6907 0.72373,-8.13246 -0.006,-4.67219 -2.46334,-10.64585 -6.01242,-14.60533 -0.97755,-1.09059 -0.95351,-1.08507 0.82132,0.18725 5.40698,3.87613 7.61558,8.93642 8.66292,19.8482 0.28663,2.98657 0.84271,6.44133 1.23569,7.67714 1.59414,5.01333 4.78611,8.25693 10.19996,10.36501 1.59238,0.62004 2.66979,1.23794 2.39428,1.37307 -0.81575,0.40019 -3.45379,4.26536 -3.81262,5.58607 l -0.33165,1.22083 -1.55284,-0.83694 c -0.85406,-0.46034 -3.03363,-2.0069 -4.84351,-3.43685 z m 73.28909,-33.59899 c -1.89606,-0.89537 -1.89022,-1.27466 0.0363,-2.37007 l 1.35747,-0.77179 0.93968,0.88408 c 1.33611,1.25714 1.22627,3.04814 -0.18696,3.04814 -0.26026,0 -1.22621,-0.35566 -2.14663,-0.79036 z m -23.90293,-13.24119 c 0.69814,-1.27676 0.95039,-2.82075 0.46084,-2.82075 -0.13695,0 -1.16267,0.50555 -2.27905,1.12354 -1.11635,0.61788 -2.30908,1.12346 -2.6505,1.12346 -0.34144,0 -0.71926,0.21058 -0.83958,0.4681 -0.1203,0.25754 -0.35821,0.37065 -0.52854,0.25148 -0.62984,-0.44049 1.12767,-8.87045 2.49756,-11.97959 1.51173,-3.43107 3.89392,-6.52856 5.02091,-6.52856 1.2226,0 2.5129,2.32441 3.26748,5.88622 0.77851,3.67509 0.65234,5.72196 -0.63572,10.31312 -0.68234,2.43213 -0.89871,2.74037 -2.06029,2.93506 -0.71385,0.11969 -1.51846,0.27391 -1.78803,0.34253 -1.08571,0.27664 -1.1464,0.13121 -0.46508,-1.11467 z m 16.63528,29.76459 c 0.1718,-0.21241 -0.0242,-0.27512 -0.46118,-0.14726 -0.84905,0.24875 -1.00442,0.51736 -0.29936,0.51736 0.2536,0 0.59592,-0.16665 0.7606,-0.37022 z"
       style="fill:#000000;stroke:#000000;stroke-width:0.00272764;stroke-miterlimit:4;stroke-dasharray:none;stroke-opacity:1" />
    <path
       inkscape:connector-curvature="0"
       id="path1130"
       d="m 240.41624,236.55887 c 0.27656,-0.48614 0.98282,-1.44268 1.56946,-2.12566 1.75417,-2.04222 0.57637,-2.09513 -4.45786,-0.20025 -2.62373,0.98757 -5.5106,1.79558 -6.41526,1.79558 -1.46061,0 -1.66897,-0.3762 -1.86035,-3.35876 l -0.21552,-3.35876 -1.39459,1.59099 c -0.76702,0.87505 -1.79118,1.59099 -2.2759,1.59099 -0.48473,0 -0.72519,0.40688 -0.53436,0.90418 0.19083,0.49729 -0.0589,1.45929 -0.55506,2.13777 -0.8528,1.16626 -1.09351,1.16835 -4.41014,0.0383 -4.93973,-1.68314 -9.88784,-6.73669 -10.53036,-10.75476 -0.99052,-6.19442 1.71407,-10.59071 8.3867,-13.63245 3.90505,-1.78014 9.78259,-1.68254 13.78858,0.22896 l 3.18198,1.51831 -4.12605,0.67668 c -3.67593,0.60287 -4.3509,0.98708 -6.18718,3.522 -2.88454,3.98199 -2.66498,5.69006 0.31342,2.4384 3.81619,-4.16631 9.67235,-5.43603 12.4163,-2.69207 1.29708,1.29707 1.30676,1.53901 0.22341,5.58233 -1.05831,3.94984 -1.0518,4.34957 0.0996,6.10682 1.32448,2.02142 4.1639,3.49239 4.58412,2.37482 0.1389,-0.36941 -0.45614,-1.42602 -1.32231,-2.34801 -1.51379,-1.61137 -1.53931,-1.85519 -0.65808,-6.28863 0.72419,-3.6434 0.73646,-5.00801 0.0584,-6.4962 -0.4721,-1.03616 -0.71461,-2.02769 -0.53891,-2.2034 1.21337,-1.21337 8.76254,6.57986 9.38406,9.68745 0.49054,2.45268 1.39481,2.14377 2.81487,-0.96161 l 1.01208,-2.21321 -0.21533,2.99074 c -0.14937,2.07452 0.0898,3.10783 0.78059,3.37292 0.54775,0.21019 3.49144,-0.15409 6.54153,-0.80952 6.47935,-1.39235 7.78083,-1.13623 17.20485,3.38573 5.19745,2.49391 5.9242,3.05815 5.34146,4.14699 -0.75224,1.40558 -10e-4,2.31032 2.86941,3.45681 1.25892,0.50279 -0.91158,0.703 -7.97489,0.73562 l -9.70456,0.0448 -1.05266,-2.03563 c -1.23501,-2.38825 -2.34386,-2.91412 -6.1447,-2.91412 -2.03293,0 -3.27944,0.47671 -4.53836,1.73563 -0.95459,0.95459 -1.73562,2.06829 -1.73562,2.47487 0,0.46527 -2.63617,0.73925 -7.1128,0.73925 -5.48702,0 -6.99787,-0.20203 -6.60996,-0.88388 z"
       style="opacity:1;fill:#ffffff;fill-opacity:1;stroke:none;stroke-width:4.45053005;stroke-miterlimit:4;stroke-dasharray:none;stroke-dashoffset:0;stroke-opacity:1" />
    <path
       inkscape:connector-curvature="0"
       id="path1132"
       d="m 239.99686,236.84524 c 0,-0.32863 0.62889,-1.16666 1.39754,-1.86227 2.38353,-2.15706 0.9413,-2.39339 -3.89436,-0.63814 -2.55122,0.92604 -5.4196,1.68371 -6.37418,1.68371 -1.58988,0 -1.7356,-0.27168 -1.7356,-3.23576 v -3.23577 l -2.0822,1.64478 c -1.14521,0.90462 -2.0998,1.9817 -2.12132,2.3935 -0.0215,0.41181 -0.43801,1.29425 -0.92555,1.96099 -0.83489,1.14179 -1.09035,1.14278 -4.39453,0.0169 -4.82048,-1.64251 -9.94286,-6.79748 -10.59601,-10.66344 -1.02883,-6.08958 1.80739,-10.69464 8.45235,-13.72377 3.8885,-1.77259 9.77738,-1.68115 13.78858,0.2141 l 3.18198,1.50346 -4.21206,0.77911 c -3.79159,0.70134 -4.42194,1.07816 -6.3145,3.77485 -2.33131,3.32185 -1.89828,5.27096 0.45371,2.0422 2.85278,-3.91624 10.72365,-5.45748 12.79177,-2.50483 0.90611,1.29366 0.89832,1.94008 -0.0642,5.32353 -1.27542,4.48341 -0.61131,6.85771 2.28759,8.17854 2.43979,1.11164 3.04576,0.21209 1.18873,-1.76463 -1.76894,-1.88295 -1.85518,-2.79955 -0.67762,-7.20231 0.66648,-2.49191 0.66922,-3.7032 0.0123,-5.44359 -0.46471,-1.23117 -0.7013,-2.38213 -0.52574,-2.55769 1.0589,-1.0589 7.81591,5.58911 8.99505,8.84995 1.06198,2.93686 1.77815,2.94581 3.04199,0.038 l 0.99885,-2.2981 0.0277,2.96348 c 0.0152,1.62991 0.34198,3.15772 0.72613,3.39513 0.38414,0.23742 3.24049,-0.1146 6.34744,-0.78225 6.59412,-1.417 7.85672,-1.17164 17.30824,3.36352 5.19746,2.49391 5.92421,3.05814 5.34147,4.14699 -0.75224,1.40558 -10e-4,2.31032 2.86941,3.45681 1.25892,0.50279 -0.91158,0.703 -7.97489,0.73562 l -9.70456,0.0448 -1.05266,-2.03563 c -1.23501,-2.38825 -2.34386,-2.91412 -6.1447,-2.91412 -2.03293,0 -3.27944,0.47671 -4.53836,1.73563 -0.95459,0.95459 -1.73562,2.06829 -1.73562,2.47487 0,0.46498 -2.62347,0.73925 -7.07107,0.73925 -3.88909,0 -7.07107,-0.26888 -7.07107,-0.59751 z"
       style="opacity:1;fill:#ffffff;fill-opacity:1;stroke:none;stroke-width:4.45053005;stroke-miterlimit:4;stroke-dasharray:none;stroke-dashoffset:0;stroke-opacity:1" />
    <path
       inkscape:connector-curvature="0"
       id="path1134"
       d="m 239.99686,236.9681 c 0,-0.26106 0.52838,-1.0585 1.17418,-1.7721 1.8703,-2.06666 0.6478,-2.26342 -4.10033,-0.65995 -2.43074,0.82087 -5.15323,1.49249 -6.04998,1.49249 -1.46502,0 -1.63047,-0.32835 -1.63047,-3.23576 v -3.23577 l -2.0822,1.64478 c -1.14521,0.90462 -2.0998,1.9817 -2.12132,2.3935 -0.0215,0.41181 -0.43801,1.29425 -0.92555,1.96099 -0.82538,1.12878 -1.11483,1.13443 -4.20341,0.082 -7.3738,-2.51251 -11.88136,-8.88438 -10.80246,-15.27032 1.3856,-8.20129 13.57981,-13.1034 22.25626,-8.94709 2.89228,1.38551 3.02104,1.54932 1.41421,1.79928 -5.21057,0.81055 -6.93403,1.67493 -8.84887,4.43804 -2.23676,3.22766 -1.72598,4.95738 0.54379,1.84148 2.84507,-3.90565 10.72344,-5.45778 12.78236,-2.51827 0.88364,1.26158 0.88826,1.97088 0.0342,5.24163 -1.12294,4.30022 -0.53733,6.86959 1.85789,8.15147 2.40072,1.28482 3.04719,0.47278 1.34569,-1.69034 -1.49368,-1.89891 -1.53217,-2.24208 -0.71346,-6.36103 0.63718,-3.20566 0.66201,-4.88883 0.0941,-6.38247 -0.42421,-1.11574 -0.61321,-2.18669 -0.42001,-2.37989 1.08692,-1.08692 7.82584,5.49578 9.02713,8.81787 1.06198,2.93686 1.77815,2.94581 3.04199,0.038 l 0.99885,-2.2981 0.0277,2.96348 c 0.0152,1.62991 0.32817,3.14918 0.69544,3.37616 0.36726,0.22699 2.95199,-0.10684 5.74384,-0.74184 6.47007,-1.47158 8.89528,-1.05723 17.05332,2.91356 5.92371,2.88327 6.56406,3.38291 6.35815,4.96099 -0.18402,1.41025 0.23251,1.95526 2.12132,2.77562 2.20258,0.95664 1.75038,1.02253 -7.19565,1.04845 l -9.54594,0.0277 -1.97469,-2.47485 c -1.73114,-2.16962 -2.36738,-2.47486 -5.15866,-2.47486 -2.43771,0 -3.59078,0.4068 -4.91961,1.73563 -0.95459,0.95459 -1.73562,2.06829 -1.73562,2.47487 0,0.46498 -2.62347,0.73925 -7.07107,0.73925 -3.88909,0 -7.07107,-0.21359 -7.07107,-0.47465 z"
       style="opacity:1;fill:#ffffff;fill-opacity:1;stroke:none;stroke-width:4.45053005;stroke-miterlimit:4;stroke-dasharray:none;stroke-dashoffset:0;stroke-opacity:1" />
    <path
       inkscape:connector-curvature="0"
       id="path1136"
       d="m 262.20754,220.82574 c 0.51968,-2.07056 -0.19535,-2.21888 -3.20185,-0.66416 -1.17377,0.60699 -2.38399,1.00473 -2.68937,0.88389 -0.30537,-0.12085 -0.13862,-2.23819 0.37055,-4.70519 1.04686,-5.07206 4.45459,-11.66156 6.21051,-12.00919 2.87515,-0.5692 4.48539,10.43114 2.29449,15.67471 -1.27437,3.05 -3.71214,3.71977 -2.98433,0.81994 z"
       style="opacity:1;fill:#ffffff;fill-opacity:1;stroke:none;stroke-width:4.45053005;stroke-miterlimit:4;stroke-dasharray:none;stroke-dashoffset:0;stroke-opacity:1" />
    <path
       inkscape:connector-curvature="0"
       id="path1138"
       d="m 234.55586,284.10558 c -7.42433,-1.08518 -12.94697,-5.20284 -12.94113,-9.64888 0.004,-3.29557 2.36965,-6.21316 8.59099,-10.59684 7.61321,-5.36443 11.91246,-9.53303 11.91246,-11.55048 0,-1.15526 0.30326,-1.46653 1.12248,-1.15217 0.61736,0.2369 2.447,0.61087 4.06586,0.83104 3.50096,0.47614 2.98429,-0.0566 -3.77561,-3.89285 -4.63088,-2.62805 -5.4211,-4.02142 -4.64049,-8.18242 l 0.46342,-2.47023 h 7.23755 7.23756 l 0.78231,2.07257 c 0.60586,1.60513 1.46866,2.25739 3.82549,2.89202 4.228,1.13848 7.09544,0.22119 8.381,-2.68106 l 1.0115,-2.28353 h 9.79004 9.79004 l -1.02054,1.94455 c -0.9393,1.78975 -4.69516,5.6559 -7.67596,7.90135 -1.14635,0.86355 -1.20214,0.68688 -0.77263,-2.44674 0.31884,-2.32619 0.22701,-3.23169 -0.29503,-2.90905 -0.41688,0.25765 -0.87877,0.10605 -1.02642,-0.33689 -1.19921,-3.59764 -14.70158,10.42132 -14.70158,15.26405 0,1.73582 2.0738,1.25968 2.95709,-0.67894 0.443,-0.97227 1.20564,-1.76776 1.69477,-1.76776 0.48913,0 1.42937,-0.20724 2.08942,-0.46052 0.94997,-0.36454 1.10754,-0.16892 0.75604,0.93859 -0.27182,0.85642 0.24508,2.69521 1.33261,4.74057 2.14609,4.03624 2.19578,4.96885 0.36246,6.80217 -1.28193,1.28193 -1.41632,1.29847 -1.4367,0.17678 -0.0243,-1.33722 -1.88312,-4.16373 -2.39898,-3.64787 -0.17311,0.17311 -0.53559,1.97952 -0.80551,4.01424 -0.47227,3.56014 -0.42739,3.6999 1.19134,3.71032 0.92514,0.006 2.05992,0.25108 2.52173,0.54472 0.91464,0.58158 2.34233,3.90513 2.34233,5.45274 0,1.25292 -3.39723,3.6602 -6.05353,4.28955 l -2.07819,0.49238 1.63774,-1.57712 c 0.90075,-0.86742 1.5134,-1.70146 1.36144,-1.85342 -0.15197,-0.15197 -2.47994,0.83364 -5.17328,2.19024 -2.69333,1.3566 -5.07082,2.46752 -5.2833,2.46872 -0.21248,0.001 -0.37158,-2.06762 -0.35355,-4.59738 0.0271,-3.80364 0.21631,-4.52391 1.09343,-4.16241 2.74407,1.13093 3.55778,1.02583 5.26341,-0.6798 2.52216,-2.52216 2.43495,-6.26278 -0.24453,-10.48788 -3.63313,-5.72885 -5.34675,-5.5753 -2.67722,0.2399 0.95434,2.07891 1.45428,3.88591 1.11097,4.01555 -0.34331,0.12963 -0.6242,0.72544 -0.6242,1.32401 0,0.88722 -0.19599,0.92567 -1.06066,0.20805 -0.89857,-0.74574 -1.06066,-0.58653 -1.06066,1.04183 v 1.9221 l -3.35876,-2.46372 c -1.84732,-1.35504 -3.93768,-3.65448 -4.64525,-5.10986 -0.90423,-1.85987 -1.50866,-2.42398 -2.03419,-1.89845 -1.17957,1.17957 -0.0505,4.17322 2.73788,7.25969 2.02632,2.24289 2.6338,3.57112 2.8999,6.34049 0.30431,3.16692 0.1314,3.71314 -1.80104,5.68969 -1.78441,1.82514 -2.93847,2.28964 -6.98371,2.81093 -5.44173,0.70125 -5.5548,0.70079 -10.64061,-0.0426 z"
       style="opacity:1;fill:#ffffff;fill-opacity:1;stroke:none;stroke-width:4.45053005;stroke-miterlimit:4;stroke-dasharray:none;stroke-dashoffset:0;stroke-opacity:1" />
    <path
       inkscape:connector-curvature="0"
       id="path1140"
       d="m 213.04249,268.97079 c -7.83163,-6.14819 -8.65116,-8.34508 -8.00241,-21.45177 0.66384,-13.41144 1.64324,-13.5751 3.46751,-0.57943 0.55462,3.95103 1.32934,8.0278 1.7216,9.05951 1.1851,3.11706 5.6252,7.45113 8.9241,8.71099 l 3.10815,1.18701 -1.73889,2.2798 c -0.95639,1.2539 -1.73889,2.64752 -1.73889,3.09695 0,1.52834 -1.76006,0.8223 -5.74117,-2.30306 z"
       style="opacity:1;fill:#ffffff;fill-opacity:1;stroke:none;stroke-width:4.45053005;stroke-miterlimit:4;stroke-dasharray:none;stroke-dashoffset:0;stroke-opacity:1" />
    <path
       inkscape:connector-curvature="0"
       id="path1142"
       d="m 267.36211,252.00666 c 0.96467,-1.69307 7.3464,-8.37223 7.68035,-8.03829 0.40633,0.40634 -1.08635,4.8568 -2.03466,6.06638 -0.61372,0.78279 -4.9622,2.96435 -5.90882,2.96435 -0.16628,0 -0.0479,-0.4466 0.26313,-0.99244 z"
       style="opacity:1;fill:#ffffff;fill-opacity:1;stroke:none;stroke-width:4.45053005;stroke-miterlimit:4;stroke-dasharray:none;stroke-dashoffset:0;stroke-opacity:1" />
    <path
       inkscape:connector-curvature="0"
       id="path1144"
       d="m 263.70742,257.41697 c 0.0521,-0.0859 0.27386,-0.40938 0.4929,-0.71875 0.21905,-0.30938 0.57947,-0.92813 0.80095,-1.375 0.46157,-0.93131 0.94573,-1.5 1.27703,-1.5 0.18116,0 0.21279,-0.0646 0.15143,-0.30906 -0.28695,-1.14327 5.49689,-7.96884 9.0347,-10.66194 0.56284,-0.42846 1.0568,-0.83314 1.09769,-0.89929 0.0466,-0.0754 0.18921,-0.0679 0.38237,0.0201 0.22427,0.10218 0.38963,0.10317 0.60807,0.004 0.28884,-0.1316 0.44997,-0.0926 0.44997,0.10899 0,0.0527 -0.12656,0.13418 -0.28125,0.18117 -0.52309,0.1589 -1.06948,0.67379 -1.66403,1.56811 -0.71372,1.0736 -1.20775,2.30408 -1.55707,3.87825 -0.57283,2.58138 -0.99414,3.02827 -4.04204,4.28744 -2.07678,0.85797 -3.48319,1.65106 -3.21824,1.81481 0.0745,0.0461 0.45938,0.0433 0.85529,-0.006 0.39591,-0.0494 1.04565,-0.0947 1.44386,-0.10045 l 0.72402,-0.0106 -0.33529,0.57213 c -0.18441,0.31467 -0.38056,0.89123 -0.43589,1.28125 -0.10031,0.70719 -0.10046,0.70673 -0.053,-0.16588 0.0262,-0.48125 0.0857,-1.00088 0.13229,-1.15473 0.12889,-0.42557 -0.2079,-0.47565 -1.232,-0.18321 -0.49452,0.14123 -1.1687,0.2929 -1.49816,0.33705 -0.7628,0.10224 -1.29066,0.55449 -1.83147,1.56916 -0.42596,0.79918 -1.07286,1.61923 -1.27734,1.61923 -0.0657,0 -0.0768,-0.0703 -0.0248,-0.15625 z m 4.6185,-4.78082 c 1.23469,-0.46474 3.72121,-1.78263 4.30311,-2.28072 0.30179,-0.25832 0.6905,-0.79472 0.95153,-1.31306 0.87101,-1.72959 1.82294,-5.09415 1.44128,-5.09415 -0.46983,0 -4.87232,4.4727 -6.94114,7.05183 -0.60435,0.75344 -0.85357,1.16546 -1.00826,1.66692 -0.11712,0.37968 0.18245,0.37231 1.25348,-0.0308 z"
       style="opacity:1;fill:#ffffff;fill-opacity:1;stroke:none;stroke-width:0.78675002;stroke-miterlimit:4;stroke-dasharray:none;stroke-dashoffset:0;stroke-opacity:1" />
    <path
       inkscape:connector-curvature="0"
       id="path1146"
       d="m 261.36731,238.5363 c -0.45249,-0.15425 -1.00524,-0.43405 -1.22834,-0.62177 l -0.40562,-0.34131 2.47834,0.005 2.47834,0.005 -0.4375,0.37929 c -0.58901,0.51064 -1.28986,0.86124 -1.71377,0.85732 -0.1918,-0.002 -0.71895,-0.12943 -1.17145,-0.28369 z"
       style="opacity:1;fill:#ffffff;fill-opacity:1;stroke:none;stroke-width:0.78675002;stroke-miterlimit:4;stroke-dasharray:none;stroke-dashoffset:0;stroke-opacity:1" />
    <path
       inkscape:connector-curvature="0"
       id="path1148"
       d="m 258.53066,240.82269 c -0.61509,-0.37502 -0.88849,-1.39853 -0.467,-1.74834 0.30104,-0.24984 1.05469,-0.0353 1.52373,0.43373 0.47977,0.47977 0.53786,0.94241 0.16514,1.31514 -0.31679,0.31679 -0.70169,0.31663 -1.22187,-5.3e-4 z"
       style="opacity:1;fill:#ffffff;fill-opacity:1;stroke:none;stroke-width:0.78675002;stroke-miterlimit:4;stroke-dasharray:none;stroke-dashoffset:0;stroke-opacity:1" />
    <path
       inkscape:connector-curvature="0"
       id="path1150"
       d="m 286.13421,235.38378 c -1.16447,-0.47961 -1.98026,-0.97126 -2.09117,-1.26028 -0.11111,-0.28955 0.40669,-0.75128 1.62323,-1.44745 l 1.10767,-0.63387 0.56177,0.54677 c 1.15454,1.1237 1.51521,2.28481 0.90987,2.92917 -0.39198,0.41724 -0.84162,0.38863 -2.11137,-0.13434 z"
       style="opacity:1;fill:#ffffff;fill-opacity:1;stroke:none;stroke-width:0.78675002;stroke-miterlimit:4;stroke-dasharray:none;stroke-dashoffset:0;stroke-opacity:1" />
    <path
       inkscape:connector-curvature="0"
       id="path1152"
       d="m 267.31503,286.98768 c -0.95853,-0.21677 -3.28405,-0.91921 -4.8008,-1.45012 l -1.8008,-0.63033 2.09641,-0.35139 c 2.30127,-0.38571 4.36014,-0.89912 5.93644,-1.48032 1.28906,-0.47529 2.10397,-0.57166 3.22916,-0.38187 2.04587,0.34508 4.44345,2.06499 4.10568,2.94521 -0.11377,0.29649 -0.50471,0.0382 -1.45364,-0.9605 -0.83148,-0.87506 -1.09727,-1.00223 -1.38076,-0.66064 -0.12714,0.1532 -0.13282,0.37931 -0.0267,1.06476 0.0741,0.47864 0.0948,1.02392 0.046,1.21174 -0.11135,0.42877 -0.76804,0.77854 -1.46217,0.7788 -0.42657,1.7e-4 -0.53519,-0.0525 -0.65625,-0.31818 -0.0798,-0.17511 -0.14506,-0.43566 -0.14506,-0.579 0,-0.83776 -1.66219,-2.22762 -2.66411,-2.22762 -0.2906,0 -0.71089,0.34029 -0.71089,0.57558 0,0.0651 0.23906,0.22943 0.53125,0.36515 0.63332,0.29418 0.93809,0.95472 0.79425,1.72143 l -0.0868,0.46284 -0.65058,-0.0145 c -0.35783,-0.008 -0.76309,-0.0399 -0.90059,-0.071 z"
       style="opacity:1;fill:#ffffff;fill-opacity:1;stroke:none;stroke-width:0.78675002;stroke-miterlimit:4;stroke-dasharray:none;stroke-dashoffset:0;stroke-opacity:1" />
    <path
       inkscape:connector-curvature="0"
       id="path1154"
       d="m 251.56503,289.74005 c -0.40954,-0.1126 -0.5269,-0.26903 -0.61495,-0.81967 -0.16967,-1.06104 -0.88858,-1.72216 -1.87269,-1.72216 -0.54849,0 -0.59002,0.23505 -0.15501,0.87723 0.41255,0.60901 0.52112,1.00413 0.31228,1.13646 -0.70493,0.44666 -4.68115,-0.45589 -7.10713,-1.61322 l -0.9375,-0.44724 1.7954,-0.0928 c 2.5494,-0.13184 3.80067,-0.31699 6.0796,-0.89963 2.62094,-0.67008 3.907,-0.71335 4.89683,-0.16476 0.87618,0.4856 2.21341,1.61199 2.53884,2.13854 0.21616,0.34976 0.23952,0.47991 0.12465,0.69454 -0.12779,0.23877 -0.16745,0.24705 -0.41334,0.0863 -0.14959,-0.0978 -0.37588,-0.39723 -0.50287,-0.66534 -0.31457,-0.66416 -0.79659,-1.16136 -1.39411,-1.438 -1.11475,-0.51611 -1.28967,-0.19049 -0.55281,1.02906 0.50967,0.84354 0.52776,0.90593 0.35296,1.21777 -0.10133,0.18078 -0.33099,0.39925 -0.51036,0.48549 -0.36791,0.17689 -1.65982,0.302 -2.03979,0.19753 z"
       style="opacity:1;fill:#ffffff;fill-opacity:1;stroke:none;stroke-width:0.78675002;stroke-miterlimit:4;stroke-dasharray:none;stroke-dashoffset:0;stroke-opacity:1" />
    <path
       inkscape:connector-curvature="0"
       id="path1156"
       d="m 260.87764,271.88585 c -0.10097,-0.12167 -0.20593,-0.62308 -0.24471,-1.16908 l -0.0679,-0.95605 -0.40625,0.0317 c -0.27651,0.0216 -0.40625,-0.0231 -0.40625,-0.13992 0,-0.0944 -0.22979,-0.46024 -0.51063,-0.81297 -0.28085,-0.35273 -0.46778,-0.64133 -0.4154,-0.64133 0.0524,0 0.39997,0.20988 0.77243,0.4664 0.62493,0.43041 0.6894,0.4497 0.83542,0.25 0.087,-0.11902 0.24176,-0.2164 0.34384,-0.2164 0.75659,0 1.12682,2.35025 0.49344,3.13244 -0.20281,0.25047 -0.22889,0.25413 -0.39399,0.0552 z"
       style="opacity:1;fill:#ffffff;fill-opacity:1;stroke:none;stroke-width:0.78675002;stroke-miterlimit:4;stroke-dasharray:none;stroke-dashoffset:0;stroke-opacity:1" />
    <path
       inkscape:connector-curvature="0"
       id="path1158"
       d="m 257.15137,271.07282 c -3.47063,-2.44052 -6.20115,-4.68868 -6.32896,-5.21094 -0.17582,-0.71846 -1.56143,-3.38887 -1.89423,-3.65065 -0.18635,-0.14658 -0.30118,-0.30415 -0.25519,-0.35014 0.1641,-0.1641 0.7412,0.41465 1.20967,1.21312 0.26187,0.44633 0.69127,1.17434 0.95424,1.61781 0.77071,1.2997 3.27428,3.72909 5.54063,5.37647 l 1.9375,1.40834 0.0693,-1.29556 c 0.0381,-0.71255 0.0813,-1.15493 0.0959,-0.98305 0.0146,0.17187 0.13719,0.73437 0.27233,1.25 0.31393,1.19776 0.32218,1.62604 0.0312,1.62184 -0.12031,-0.002 -0.8549,-0.4505 -1.63241,-0.99724 z"
       style="opacity:1;fill:#ffffff;fill-opacity:1;stroke:none;stroke-width:0.78675002;stroke-miterlimit:4;stroke-dasharray:none;stroke-dashoffset:0;stroke-opacity:1" />
    <path
       inkscape:connector-curvature="0"
       id="path1160"
       d="m 238.50253,284.61982 c -1.49663,-0.13419 -5.19379,-0.71779 -6.26782,-0.98937 -2.42826,-0.61402 -4.45474,-1.46772 -6.29468,-2.65177 -1.18564,-0.76299 -2.91114,-2.51698 -3.47366,-3.53102 -1.79249,-3.23128 -0.67035,-6.62895 3.36103,-10.1767 1.08131,-0.95159 2.32569,-1.90104 6.56655,-5.01024 6.50043,-4.76583 9.72761,-8.12897 9.73236,-10.14241 7.5e-4,-0.31582 0.0914,-0.62877 0.2327,-0.80326 l 0.23148,-0.28586 1.42477,0.33396 c 0.78362,0.18368 2.10602,0.44671 2.93866,0.58451 3.86981,0.64047 3.47384,0.12164 -2.57639,-3.3758 -5.61734,-3.2472 -6.24957,-4.27031 -5.44476,-8.81114 0.43617,-2.4609 1.12568,-3.94755 2.52443,-5.44293 0.3123,-0.33388 0.53132,-0.66612 0.4867,-0.73831 -0.14837,-0.24007 -1.11592,-0.13245 -2.19137,0.24374 -0.58438,0.20441 -1.26688,0.3724 -1.51667,0.37332 -0.34362,0.001 -0.46962,0.0607 -0.51762,0.2443 -0.0906,0.34662 -0.71535,0.57681 -3.40321,1.25402 -4.00079,1.008 -4.69882,1.06863 -4.94192,0.42923 -0.0663,-0.17443 -0.12058,-1.34626 -0.12058,-2.60406 0,-2.54241 -0.082,-3.44681 -0.3123,-3.44681 -0.25978,0 -1.05614,0.70377 -1.80051,1.59117 -0.45843,0.54651 -0.85735,0.89457 -1.1261,0.9825 -0.2289,0.0749 -0.46796,0.2287 -0.53125,0.34179 -0.0869,0.15536 -0.0711,0.18874 0.0649,0.13655 0.099,-0.038 0.21415,-0.0138 0.25592,0.0538 0.16213,0.26233 -1.46271,2.94197 -2.16912,3.57728 -0.26639,0.23958 -0.29366,0.24027 -1.10858,0.028 -0.4595,-0.11967 -1.39796,-0.48948 -2.08546,-0.82181 -0.69158,-0.3343 -1.52692,-0.64053 -1.86987,-0.68548 -1.30793,-0.17144 -3.50583,-1.58103 -5.64926,-3.62307 -1.53072,-1.45832 -2.36995,-2.52976 -3.0495,-3.8933 -0.64989,-1.30404 -0.85677,-2.32621 -0.9487,-4.6875 -0.15257,-3.91894 0.62284,-6.0892 3.02507,-8.46672 1.20952,-1.19708 2.8949,-2.34004 4.99915,-3.39023 1.66903,-0.83297 2.13988,-0.99859 4.12822,-1.45212 2.0587,-0.46957 4.56605,-0.42189 7.29802,0.13878 1.23163,0.25277 1.86312,0.46808 3.06687,1.04566 1.11476,0.53488 3.45564,1.91754 4.16425,2.45965 l 0.46075,0.35248 -3,0.073 c -2.92848,0.0712 -3.02942,0.0824 -4.23412,0.46875 -0.67877,0.21767 -1.37346,0.39577 -1.54375,0.39577 -0.19288,0 -0.48167,0.17614 -0.76588,0.46712 -0.25094,0.25692 -0.64752,0.62311 -0.88128,0.81377 -1.05064,0.85687 -3.01247,3.9558 -3.01247,4.75854 0,0.7257 0.54428,0.51176 1.1288,-0.44368 1.94073,-3.17226 4.76067,-4.74941 9.02171,-5.0457 2.11184,-0.14685 4.00616,0.33412 4.93059,1.25189 0.65812,0.65338 0.83901,1.29116 0.76523,2.69806 -0.0556,1.06063 -0.21937,1.63649 -1.17291,4.125 -0.32127,0.83843 -0.35899,1.08939 -0.3569,2.375 0.003,1.79132 0.24499,2.48598 1.2555,3.60262 0.82683,0.91368 2.23566,1.69268 2.93973,1.6255 0.36285,-0.0346 0.43174,-0.093 0.46632,-0.39489 0.0349,-0.30442 -0.10993,-0.49549 -1.02907,-1.35807 -0.72588,-0.68122 -1.17631,-1.22187 -1.4016,-1.68233 -0.4866,-0.99457 -0.38271,-2.09719 0.45159,-4.79283 1.11599,-3.60584 1.13456,-4.65932 0.12259,-6.95297 -0.46493,-1.05377 -0.65921,-1.65679 -0.66953,-2.0782 -0.0138,-0.56336 -0.0324,-0.59366 -0.36451,-0.59375 -0.19247,-4e-5 -0.52997,-0.0905 -0.75,-0.20095 -0.59285,-0.29767 -2.76855,-1.96796 -2.62554,-2.01563 0.0677,-0.0226 0.58259,0.15557 1.14409,0.3959 7.01508,3.00258 11.97018,7.72175 12.78658,12.17774 0.24968,1.36276 0.73822,1.48861 1.4887,0.38348 0.94131,-1.38615 1.35669,-2.63521 1.38109,-4.15303 0.007,-0.4263 0.0511,-0.91367 0.0983,-1.08303 l 0.0858,-0.30794 0.26857,0.26857 c 0.39769,0.39769 0.54673,1.05073 0.62316,2.73052 0.0512,1.12562 0.017,1.76297 -0.13486,2.51247 -0.23868,1.17795 -0.25964,1.79182 -0.0612,1.79182 0.0783,0 1.02046,-0.55461 2.09375,-1.23245 2.92764,-1.84899 3.74443,-2.21265 2.82056,-1.2558 -0.27177,0.28146 -1.141,0.99284 -1.93162,1.58085 -1.57393,1.17056 -2.125,1.64263 -2.125,1.82035 0,0.19572 1.60263,-0.0302 2.98661,-0.42108 0.71451,-0.20178 1.39372,-0.36687 1.50936,-0.36687 0.11563,0 0.59978,-0.13245 1.07589,-0.29432 1.21749,-0.41396 2.34534,-0.59119 4.36564,-0.68603 2.53888,-0.11919 3.88338,0.001 5.375,0.48238 1.76678,0.56962 4.42504,1.72353 6.6875,2.90296 4.61323,2.40488 5.27956,2.72146 6.51685,3.09614 0.7126,0.21581 1.37192,0.41685 1.46515,0.44678 0.11099,0.0356 -0.0939,0.33602 -0.59375,0.87032 -0.75761,0.80988 -0.76325,0.82142 -0.76325,1.56056 0,0.73201 0.009,0.7512 0.53125,1.1316 0.81401,0.59293 1.14824,0.74592 2.96875,1.35891 1.44813,0.4876 1.69317,0.60809 1.72744,0.84945 0.03,0.21129 -0.0223,0.28125 -0.21023,0.28125 -0.18783,0 -0.39848,0.28125 -0.84518,1.12847 -0.32725,0.62067 -0.96383,1.59098 -1.41463,2.15625 -1.90721,2.39154 -6.6552,6.71528 -7.37418,6.71528 -0.18797,0 -0.16582,-1.17842 0.0529,-2.8125 0.10121,-0.75625 0.18512,-1.69355 0.18646,-2.0829 l 0.002,-0.70789 -0.40468,0.14539 c -0.5677,0.20397 -1.34363,1.01313 -1.94642,2.02979 -0.49052,0.82731 -0.93315,2.06256 -1.51954,4.24061 -0.48085,1.78605 -0.99382,2.2726 -3.56511,3.3815 -1.93518,0.83456 -2.91934,1.33145 -3.31463,1.67353 l -0.31212,0.2701 1.59284,-0.0813 1.59284,-0.0813 -0.34284,0.67419 c -0.19495,0.38336 -0.38246,0.61794 -0.43468,0.54379 -0.20274,-0.28791 -0.079,1.33604 0.16292,2.13767 0.14221,0.4713 0.70429,1.76095 1.24906,2.86588 1.17364,2.38044 1.49236,3.25296 1.49236,4.08546 0,0.85304 -0.24007,1.28607 -1.37964,2.48854 -1.11755,1.17924 -1.20063,1.18033 -1.36495,0.0178 -0.1458,-1.03146 -1.11712,-2.88388 -1.80081,-3.43436 -0.42582,-0.34284 -0.6428,-0.0987 -0.87431,0.98386 -0.31686,1.48161 -0.70114,4.3744 -0.70334,5.29458 -0.003,1.17938 0.0828,1.25527 1.55528,1.37951 1.69746,0.14323 2.36507,0.38563 2.84298,1.03226 0.84926,1.14907 1.84979,3.76744 1.84979,4.84085 0,0.99112 -1.44596,2.31018 -3.8125,3.47789 -0.95221,0.46985 -1.91085,0.83739 -2.625,1.00643 -0.61875,0.14646 -1.2375,0.29772 -1.375,0.33613 -0.1375,0.0384 0.31869,-0.51241 1.01376,-1.22404 2.79583,-2.86248 2.38484,-2.84927 -3.62572,0.11659 -3.13113,1.54504 -5.08627,2.43295 -5.17089,2.34833 -0.27257,-0.27257 -0.39429,-6.29988 -0.15655,-7.75173 0.18588,-1.13512 0.27446,-1.17552 1.55862,-0.71086 1.60769,0.58173 2.27497,0.62796 3.11706,0.21597 0.94078,-0.46029 2.08032,-1.59232 2.5606,-2.54376 1.11056,-2.19999 1.00125,-4.53446 -0.34382,-7.34343 -0.97854,-2.04351 -3.07284,-4.97169 -4.03054,-5.63539 -0.63436,-0.4396 -0.86002,-0.34046 -0.86002,0.37786 0,0.61436 0.34623,1.63353 1.40638,4.13985 0.37975,0.89778 0.78936,2.03927 0.91025,2.53665 l 0.2198,0.90433 -0.34851,0.36375 c -0.25517,0.26635 -0.36422,0.52738 -0.40721,0.97478 -0.0555,0.57782 -0.0427,0.6104 0.23654,0.5996 0.62579,-0.0242 1.0354,1.79443 0.62383,2.76982 -0.3434,0.81386 -0.62953,0.44721 -0.75601,-0.96875 -0.0696,-0.77909 -0.0863,-0.8125 -0.40644,-0.8125 -0.24578,0 -0.41786,-0.12358 -0.6522,-0.46834 -0.76142,-1.12021 -0.86059,-1.22143 -1.04596,-1.06758 -0.22136,0.18371 -0.15626,0.86285 0.23406,2.44202 0.36161,1.463 0.27398,1.60536 -0.6415,1.04206 -1.62859,-1.00208 -5.84787,-4.25336 -6.77077,-5.2174 -0.25314,-0.26442 -0.58076,-0.79014 -0.72805,-1.16826 -0.14729,-0.37813 -0.52624,-1.17882 -0.84213,-1.77931 -0.88952,-1.69098 -1.33956,-1.962 -1.72522,-1.03897 -0.23545,0.5635 -0.22992,1.111 0.0197,1.95184 0.44382,1.49499 1.23336,2.75664 3.16275,5.05394 1.99138,2.3711 2.49025,3.56953 2.77192,6.65898 0.23823,2.61287 -0.0424,3.35565 -1.99457,5.27952 -1.13782,1.12133 -2.06656,1.70133 -3.26665,2.04002 -2.17836,0.61477 -8.37715,1.2985 -10.25,1.13058 z m 24.77537,-26.80243 c 0.29919,-0.13632 0.99233,-1.14399 1.88761,-2.74417 0.37747,-0.67468 0.63724,-0.99007 0.92659,-1.125 0.26812,-0.12504 0.38201,-0.25352 0.34185,-0.38568 -0.10296,-0.33887 0.76338,-1.86732 1.8468,-3.25824 2.2721,-2.91697 5.02264,-5.74771 7.31118,-7.52434 0.63354,-0.49183 1.15385,-0.95832 1.15625,-1.03665 0.002,-0.0783 -0.0973,-0.26791 -0.2215,-0.42131 -0.17337,-0.2141 -0.3522,-0.27718 -0.76949,-0.27142 -2.84954,0.0393 -11.37109,8.91897 -13.38137,13.94368 -0.82115,2.05249 -0.3872,3.41057 0.90208,2.82313 z m 0.37551,-15.24195 c 0.94821,-0.29287 2.04374,-1.04042 2.50668,-1.71046 0.28368,-0.41058 1.59244,-3.06883 1.59244,-3.23443 0,-0.0315 -0.13254,-0.0573 -0.29454,-0.0573 -0.25933,0 -0.31909,-0.0995 -0.49993,-0.8323 -0.33065,-1.33989 -1.85986,-3.15883 -3.15364,-3.75114 -1.68392,-0.77092 -4.73857,-0.64794 -6.53655,0.26316 -0.83739,0.42434 -1.89649,1.42491 -2.3074,2.17988 -0.18917,0.34757 -0.40373,0.97135 -0.4768,1.38617 -0.10669,0.60571 -0.17883,0.75423 -0.36635,0.75423 -0.21688,0 -0.20746,0.0706 0.13244,0.99247 0.93971,2.54865 1.58925,3.14419 4.16259,3.81651 1.52538,0.39853 1.56754,0.40428 3.10826,0.42399 1.01082,0.0129 1.52338,-0.0425 2.1328,-0.23075 z"
       style="opacity:1;fill:#ffffff;fill-opacity:1;stroke:none;stroke-width:0.78675002;stroke-miterlimit:4;stroke-dasharray:none;stroke-dashoffset:0;stroke-opacity:1" />
  </g>
</svg>
